<svg xmlns="http://www.w3.org/2000/svg" width="130" height="30" viewBox="0 0 130 30" fill="none"><g clip-path="url(#clip0_170_71)"><path d="M15.43 15V30C13.4314 30.0304 11.4463 29.6663 9.5886 28.9286C7.73085 28.1908 6.03687 27.0939 4.60362 25.7006C3.17037 24.3073 2.02601 22.645 1.23606 20.8088C0.446105 18.9726 0.0260695 16.9987 0 15H15.43Z" fill="url(#paint0_linear_170_71)"></path><path d="M15.43 15.0001H0V0.000147135C1.99829 -0.0289471 3.98273 0.336053 5.83988 1.07428C7.69704 1.81252 9.3905 2.9095 10.8235 4.30255C12.2565 5.6956 13.4009 7.35739 14.1913 9.19295C14.9817 11.0285 15.4026 13.0018 15.43 15.0001Z" fill="url(#paint1_linear_170_71)"></path><path d="M30.86 15C30.8046 19.0323 29.1502 22.8776 26.2605 25.6904C23.3708 28.5033 19.4823 30.0534 15.45 30C15.5079 25.965 17.1659 22.1182 20.0594 19.3054C22.9528 16.4925 26.845 14.9439 30.88 15H30.86Z" fill="url(#paint2_linear_170_71)"></path><path d="M30.8601 14.9998C26.8251 15.0559 22.9329 13.5073 20.0395 10.6944C17.146 7.88158 15.488 4.03478 15.4301 -0.000193146C17.4287 -0.0306093 19.4137 0.333483 21.2715 1.07124C23.1292 1.809 24.8232 2.90593 26.2564 4.29923C27.6897 5.69254 28.834 7.35486 29.624 9.19101C30.4139 11.0272 30.834 13.0011 30.8601 14.9998Z" fill="url(#paint3_linear_170_71)"></path><path d="M50.91 16.3499C50.9228 17.406 50.7467 18.4558 50.39 19.4499C50.0725 20.3417 49.5604 21.1516 48.8911 21.821C48.2217 22.4903 47.4118 23.0024 46.52 23.3199C45.4762 23.6858 44.3761 23.8652 43.27 23.8499C42.7457 23.86 42.2213 23.8366 41.7 23.7799C41.14 23.7099 40.6 23.6699 40.08 23.5999C39.56 23.5299 39.08 23.4499 38.56 23.3399C38.04 23.2299 37.64 23.1399 37.27 23.0299V3.07992L41.43 2.41992V9.52992C41.8925 9.34801 42.3714 9.21072 42.86 9.11992C43.3932 9.01164 43.936 8.95803 44.48 8.95992C45.4296 8.94904 46.3716 9.12928 47.25 9.48992C48.0224 9.8307 48.7066 10.3438 49.25 10.9899C49.8266 11.6802 50.2585 12.4794 50.52 13.3399C50.7987 14.3183 50.9301 15.3328 50.91 16.3499ZM46.66 16.2399C46.66 13.6266 45.66 12.3233 43.66 12.3299C43.232 12.3243 42.805 12.3748 42.39 12.4799C42.0392 12.5694 41.7027 12.7074 41.39 12.8899V20.2499C41.6 20.2499 41.85 20.3199 42.18 20.3499C42.51 20.3799 42.83 20.3499 43.18 20.3499C43.6698 20.3831 44.1602 20.2957 44.6083 20.0951C45.0564 19.8946 45.4484 19.5872 45.75 19.1999C46.36 18.3231 46.656 17.266 46.59 16.1999L46.66 16.2399Z" fill="#231F20"></path><path d="M58.6399 5.07994C58.6555 5.41084 58.5961 5.74098 58.4663 6.04573C58.3364 6.35048 58.1394 6.62197 57.8899 6.83994C57.4014 7.25107 56.7834 7.47652 56.1449 7.47652C55.5064 7.47652 54.8885 7.25107 54.3999 6.83994C54.153 6.62098 53.9589 6.34879 53.8325 6.04392C53.706 5.73904 53.6504 5.40942 53.6699 5.07994C53.652 4.7521 53.7083 4.42444 53.8347 4.12141C53.9611 3.81839 54.1543 3.54783 54.3999 3.32994C54.8885 2.9188 55.5064 2.69336 56.1449 2.69336C56.7834 2.69336 57.4014 2.9188 57.8899 3.32994C58.138 3.54684 58.3342 3.8167 58.4641 4.1196C58.5939 4.4225 58.654 4.75069 58.6399 5.07994ZM58.2499 23.4899H54.0799V9.20994H58.2499V23.4899Z" fill="#231F20"></path><path d="M66.32 14.3299L67.59 13.0399L68.86 11.6899C69.26 11.2299 69.66 10.7999 70.02 10.3799L70.95 9.29992H75.9C74.9134 10.4066 73.95 11.4566 73.01 12.4499C72.07 13.4499 71.01 14.4499 69.92 15.5599C70.5387 16.1002 71.1169 16.6851 71.65 17.3099C72.25 17.9899 72.83 18.6899 73.39 19.4199C73.95 20.1499 74.46 20.8699 74.92 21.5899C75.38 22.3099 75.78 22.9899 76.1 23.5899H71.31L70.31 22.0299C69.94 21.4399 69.53 20.8799 69.1 20.3099C68.6805 19.7389 68.2298 19.1914 67.75 18.6699C67.3199 18.1831 66.8481 17.7347 66.34 17.3299V23.5899H62.16V3.07992L66.32 2.41992V14.3299Z" fill="#231F20"></path><path d="M91.0699 16.3201C91.0897 17.3717 90.9203 18.4183 90.5699 19.4101C90.2571 20.3007 89.7595 21.1151 89.1099 21.8001C88.4695 22.4643 87.6959 22.9856 86.8399 23.3301C84.934 24.0596 82.8258 24.0596 80.9199 23.3301C80.0622 22.9834 79.2858 22.4624 78.6399 21.8001C77.9757 21.1153 77.4584 20.302 77.1199 19.4101C76.752 18.4219 76.569 17.3745 76.5799 16.3201C76.5674 15.2744 76.7541 14.2359 77.1299 13.2601C77.4715 12.378 77.9848 11.5724 78.6399 10.8901C79.2922 10.2357 80.0716 9.72186 80.9299 9.38006C82.8011 8.64936 84.8787 8.64936 86.7499 9.38006C87.6036 9.71966 88.3768 10.234 89.0199 10.8901C89.6694 11.5749 90.179 12.38 90.5199 13.2601C90.8859 14.2386 91.0723 15.2753 91.0699 16.3201ZM86.8299 16.3201C86.8845 15.2839 86.6154 14.2564 86.0599 13.3801C85.8125 13.0321 85.481 12.7524 85.0963 12.567C84.7116 12.3817 84.2863 12.2967 83.8599 12.3201C83.4326 12.2996 83.0068 12.3858 82.621 12.5709C82.2352 12.7559 81.9015 13.034 81.6499 13.3801C81.0944 14.2564 80.8253 15.2839 80.8799 16.3201C80.8299 17.3557 81.0987 18.3819 81.6499 19.2601C81.8983 19.6122 82.2303 19.8971 82.6161 20.0891C83.0018 20.2811 83.4293 20.3742 83.8599 20.3601C84.2898 20.378 84.7172 20.2865 85.102 20.0941C85.4868 19.9017 85.8164 19.6147 86.0599 19.2601C86.61 18.3813 86.8787 17.3556 86.8299 16.3201Z" fill="#231F20"></path><path d="M102.32 15.9202C102.399 14.9669 102.22 14.0098 101.8 13.1502C101.604 12.8673 101.335 12.6427 101.022 12.5001C100.708 12.3575 100.362 12.3023 100.02 12.3402C99.7537 12.3202 99.4863 12.3202 99.22 12.3402L98.41 12.4302V23.4902H94.26V9.69019C94.61 9.60019 95.02 9.50019 95.5 9.41019C95.98 9.32019 96.5 9.21019 97.01 9.13019C97.52 9.05019 98.08 8.98019 98.64 8.94019C99.2 8.90019 99.75 8.88019 100.28 8.88019C101.163 8.84813 102.045 8.98037 102.88 9.27019C103.472 9.51649 104.022 9.8539 104.51 10.2702C105.119 9.83184 105.794 9.4942 106.51 9.27019C107.199 9.04947 107.917 8.93154 108.64 8.92019C109.625 8.87979 110.608 9.03968 111.53 9.39019C112.256 9.64827 112.898 10.0974 113.39 10.6902C113.849 11.3028 114.167 12.0098 114.32 12.7602C114.493 13.6361 114.577 14.5273 114.57 15.4202V23.4902H110.41V15.9202C110.481 14.9663 110.298 14.0106 109.88 13.1502C109.685 12.8689 109.417 12.6453 109.106 12.5028C108.795 12.3603 108.451 12.3041 108.11 12.3402C107.795 12.3495 107.482 12.3999 107.18 12.4902C106.829 12.5797 106.493 12.7177 106.18 12.9002C106.313 13.3293 106.397 13.7721 106.43 14.2202C106.43 14.6802 106.5 15.2202 106.5 15.7002V23.5302H102.32V15.9202Z" fill="#231F20"></path><path d="M123.64 8.82992C124.655 8.81352 125.667 8.95177 126.64 9.23992C127.391 9.45897 128.077 9.85704 128.64 10.3999C129.121 10.9246 129.465 11.5601 129.64 12.2499C129.849 13.0392 129.95 13.8534 129.94 14.6699V23.0799C129.347 23.2133 128.517 23.3633 127.45 23.5299C126.175 23.7167 124.888 23.8036 123.6 23.7899C122.733 23.8014 121.868 23.7176 121.02 23.5399C120.306 23.41 119.626 23.138 119.02 22.7399C118.466 22.386 118.022 21.8836 117.74 21.2899C117.423 20.6045 117.269 19.8549 117.29 19.0999C117.271 18.3595 117.45 17.6273 117.81 16.9799C118.145 16.407 118.62 15.9287 119.19 15.5899C119.811 15.2313 120.487 14.9779 121.19 14.8399C121.954 14.687 122.731 14.6133 123.51 14.6199C123.991 14.6076 124.472 14.6276 124.95 14.6799C125.287 14.7119 125.621 14.7687 125.95 14.8499V14.4799C125.964 14.174 125.914 13.8687 125.804 13.583C125.693 13.2973 125.525 13.0375 125.31 12.8199C124.667 12.3398 123.868 12.1185 123.07 12.1999C122.368 12.2017 121.666 12.2485 120.97 12.3399C120.365 12.4276 119.769 12.5715 119.19 12.7699L118.65 9.50992C118.949 9.41802 119.253 9.34125 119.56 9.27992C119.93 9.19992 120.33 9.11992 120.75 9.05992C121.17 8.99992 121.64 8.94992 122.11 8.89992C122.618 8.84957 123.129 8.82621 123.64 8.82992ZM123.99 20.6899H125.16C125.458 20.6803 125.756 20.6502 126.05 20.5999V17.4899L125.3 17.3799C124.96 17.3799 124.65 17.3299 124.37 17.3299C124.002 17.3279 123.635 17.3513 123.27 17.3999C122.954 17.4323 122.646 17.5203 122.36 17.6599C122.113 17.7698 121.902 17.9464 121.75 18.1699C121.59 18.4122 121.513 18.7 121.53 18.9899C121.501 19.2476 121.547 19.5082 121.662 19.7406C121.778 19.9729 121.957 20.1671 122.18 20.2999C122.739 20.5842 123.363 20.7186 123.99 20.6899Z" fill="#231F20"></path></g><defs><linearGradient id="paint0_linear_170_71" x1="-4.63" y1="22.5" x2="10.8" y2="22.5" gradientUnits="userSpaceOnUse"><stop stop-color="white"></stop><stop offset="1" stop-color="#37BCAF"></stop></linearGradient><linearGradient id="paint1_linear_170_71" x1="-8.79" y1="7.50015" x2="6.65" y2="7.50015" gradientUnits="userSpaceOnUse"><stop stop-color="white"></stop><stop offset="1" stop-color="#479FD7"></stop></linearGradient><linearGradient id="paint2_linear_170_71" x1="10.92" y1="22.5" x2="26.36" y2="22.5" gradientUnits="userSpaceOnUse"><stop stop-color="white"></stop><stop offset="1" stop-color="#97C93E"></stop></linearGradient><linearGradient id="paint3_linear_170_71" x1="11.2801" y1="7.49981" x2="26.7101" y2="7.49981" gradientUnits="userSpaceOnUse"><stop stop-color="white"></stop><stop offset="1" stop-color="#FFC727"></stop></linearGradient><clipPath id="clip0_170_71"><rect width="130" height="30" fill="white"></rect></clipPath></defs></svg>