<svg xmlns="http://www.w3.org/2000/svg" width="125" height="44" viewBox="0 0 125 44" fill="none"><g clip-path="url(#clip0_170_64)"><path d="M32.9583 0H7.59375C4.55208 0 1.92708 1.947 1.92708 5.17V24.288L10.0938 12.001H14.7917L0 35.332H6.09375L23.4792 8.668H28.1771L5.20833 44H11.6562L26.4687 20.669H31.1562L20.0521 38.005H32.9583C34.4246 37.9562 35.8143 37.3021 36.829 36.1833C37.8437 35.0644 38.4025 33.5701 38.3854 32.021V5.17C38.3854 1.947 36.0104 0 32.9583 0Z" fill="url(#paint0_linear_170_64)"></path><path d="M61.7708 30.107C60.3638 30.8985 58.792 31.3068 57.1979 31.295C55.7069 31.3668 54.2175 31.1215 52.8182 30.5735C51.4188 30.0255 50.1381 29.186 49.052 28.105C48.0151 27.0191 47.195 25.7246 46.6404 24.2981C46.0857 22.8715 45.8077 21.342 45.8229 19.8C45.8125 18.2636 46.0928 16.7405 46.6473 15.32C47.2018 13.8995 48.0194 12.6103 49.052 11.528C51.1413 9.44415 53.9181 8.30357 56.7916 8.34896C58.5141 8.38235 60.2106 8.79837 61.7708 9.56996V15.4C61.1638 14.673 60.419 14.0887 59.5846 13.6851C58.7502 13.2815 57.8448 13.0675 56.927 13.057C56.1492 13.0294 55.3741 13.1671 54.6476 13.4619C53.9211 13.7567 53.2581 14.2025 52.6979 14.773C52.0727 15.4324 51.5777 16.2162 51.2415 17.0792C50.9054 17.9421 50.7347 18.8669 50.7395 19.8C50.6775 21.5033 51.258 23.163 52.3536 24.4148C53.4492 25.6667 54.9704 26.4083 56.5833 26.477H56.9687C57.8654 26.4645 58.7501 26.2568 59.5674 25.8669C60.3847 25.477 61.1171 24.9133 61.7187 24.211L61.7708 30.107Z" fill="#231F20"></path><path d="M77.7918 26.6528H69.948L68.3751 30.7998H63.3855L71.7188 8.7998H76.1043L84.323 30.7998H79.3438L77.7918 26.6528ZM76.5417 22.7698L73.9272 15.3998L71.3438 22.7698H76.5417Z" fill="#231F20"></path><path d="M91.4374 8.7998V26.5208H97.8853V30.7998H86.6458V8.7998H91.4374Z" fill="url(#paint1_linear_170_64)"></path><path d="M105.469 8.7998V30.7998H100.677V8.7998H105.469Z" fill="url(#paint2_linear_170_64)"></path><path d="M116.438 8.7998C117.563 8.7998 120.104 8.8658 121.729 10.4828C122.229 11.0329 122.62 11.6834 122.877 12.3957C123.135 13.108 123.255 13.8677 123.229 14.6298C123.249 15.6104 123.011 16.5775 122.542 17.4238C122.131 18.1407 121.519 18.7055 120.792 19.0408C121.867 19.2202 122.868 19.7332 123.667 20.5148C124.122 21.0449 124.473 21.6648 124.7 22.3387C124.927 23.0127 125.025 23.7274 124.99 24.4418C125.015 25.2513 124.886 26.0578 124.61 26.8136C124.335 27.5694 123.918 28.2591 123.386 28.8418C121.848 30.1732 119.891 30.8412 117.906 30.7118H110.104V8.7998H116.438ZM114.833 17.7208H115.604C116.454 17.7635 117.297 17.5457 118.031 17.0938C118.308 16.8657 118.529 16.5709 118.676 16.2341C118.823 15.8973 118.891 15.5282 118.875 15.1578C118.891 14.8034 118.825 14.4503 118.684 14.1285C118.542 13.8067 118.329 13.5258 118.063 13.3098C117.314 12.8369 116.439 12.6396 115.573 12.7488H114.833V17.7208ZM114.833 26.8068H116.021C117.24 26.8068 118.708 26.8068 119.573 25.9158C119.801 25.6761 119.978 25.3889 120.095 25.0727C120.211 24.7564 120.264 24.4179 120.25 24.0788C120.264 23.7509 120.213 23.4236 120.102 23.1171C119.991 22.8105 119.822 22.5314 119.604 22.2968C118.771 21.4718 117.146 21.4718 116.177 21.4718H114.886L114.833 26.8068Z" fill="#231F20"></path></g><defs><linearGradient id="paint0_linear_170_64" x1="1.19792" y1="47.476" x2="42.7279" y2="-8.89722" gradientUnits="userSpaceOnUse"><stop stop-color="#55489C"></stop><stop offset="1" stop-color="#EE5690"></stop></linearGradient><linearGradient id="paint1_linear_170_64" x1="1036.62" y1="492.8" x2="1157.78" y2="492.8" gradientUnits="userSpaceOnUse"><stop stop-color="#55489C"></stop><stop offset="1" stop-color="#EE5690"></stop></linearGradient><linearGradient id="paint2_linear_170_64" x1="584.73" y1="492.8" x2="606.772" y2="492.8" gradientUnits="userSpaceOnUse"><stop stop-color="#55489C"></stop><stop offset="1" stop-color="#EE5690"></stop></linearGradient><clipPath id="clip0_170_64"><rect width="125" height="44" fill="white"></rect></clipPath></defs></svg>