<svg xmlns="http://www.w3.org/2000/svg" width="96" height="89" viewBox="0 0 96 89" fill="none"><path d="M15.5321 31.3948C16.0997 33.1725 17.2465 34.7125 18.7921 35.7725C20.1221 36.7652 21.7921 35.4151 21.8521 34.0254C21.8914 32.9082 21.643 31.7994 21.1303 30.8041C20.6176 29.8088 19.8576 28.9597 18.9221 28.3373C18.6512 28.184 18.3488 28.0937 18.0376 28.0733C17.7265 28.0529 17.4147 28.1029 17.1258 28.2195C16.8369 28.3361 16.5785 28.5163 16.37 28.7465C16.1615 28.9767 16.0084 29.2509 15.9221 29.5484C15.2921 31.4444 15.3221 34.5813 17.3621 35.6732C19.6521 36.9042 21.8921 34.621 22.2021 32.4768C22.5121 30.3326 20.9121 27.9799 18.5121 28.6748C16.3421 29.3101 15.5121 32.4272 17.6721 33.6382C19.8321 34.8493 22.0121 31.4146 19.6721 30.144C20.4721 30.5907 20.7621 32.3775 19.6121 32.5562L18.6121 32.4073C18.4293 32.3077 18.2851 32.1505 18.2021 31.9606C18.2021 31.772 18.2021 31.7621 18.2021 31.9606C18.2021 32.1591 18.2021 32.0896 18.2021 31.9606C18.2063 32.0471 18.1778 32.1321 18.1222 32.1988C18.1345 32.1772 18.1518 32.1587 18.1726 32.145C18.1935 32.1312 18.2173 32.1224 18.2422 32.1194C18.5375 32.0485 18.8479 32.0728 19.1284 32.1888C19.4089 32.3048 19.6449 32.5065 19.8021 32.7647C19.7692 32.5925 19.7224 32.4232 19.6621 32.2584C19.5857 31.7346 19.6513 31.2001 19.8521 30.7098L16.8521 31.9209C17.18 32.186 17.4375 32.5269 17.6021 32.9136C17.7489 33.2961 17.8037 33.7074 17.7621 34.1147L20.8221 32.3676C20.1669 31.8609 19.6822 31.1685 19.4322 30.3822C19.2806 29.8715 18.9352 29.4392 18.4689 29.1763C18.0026 28.9133 17.4516 28.8403 16.9322 28.9726C16.6724 29.0391 16.4287 29.1567 16.2157 29.3185C16.0026 29.4804 15.8246 29.6831 15.6921 29.9146C15.5596 30.1462 15.4754 30.4018 15.4445 30.6663C15.4136 30.9308 15.4366 31.1988 15.5121 31.4543L15.5321 31.3948Z" fill="white" fill-opacity="0.47"></path><path d="M33.7322 24.2773C33.6622 21.1702 28.9121 21.2992 28.8321 24.3468C28.8321 26.4017 30.8921 28.7246 33.0121 28.6055C35.6721 28.4566 36.5021 25.5082 35.1921 23.5229C34.5341 22.6454 33.6768 21.9345 32.6898 21.448C31.7028 20.9616 30.614 20.7133 29.5121 20.7234C29.1978 20.7228 28.8876 20.7936 28.6051 20.9304C28.3226 21.0671 28.0753 21.2662 27.8823 21.5125C27.6893 21.7587 27.5555 22.0455 27.4914 22.351C27.4272 22.6564 27.4343 22.9724 27.5121 23.2747C27.7566 24.5841 28.3996 25.7876 29.3544 26.7231C30.3092 27.6585 31.53 28.2808 32.8521 28.5062C33.3714 28.6334 33.92 28.5581 34.3851 28.2959C34.8502 28.0337 35.1963 27.6045 35.3521 27.0966C35.6335 26.0531 35.505 24.9426 34.9925 23.9897C34.4801 23.0368 33.6221 22.3128 32.5921 21.9643C32.3347 21.8893 32.0648 21.8665 31.7983 21.8972C31.5319 21.9279 31.2744 22.0115 31.0411 22.143C30.8079 22.2745 30.6036 22.4513 30.4406 22.6627C30.2776 22.8742 30.1591 23.1161 30.0921 23.3739C29.9616 23.9016 30.0458 24.4592 30.3266 24.9256C30.6074 25.392 31.0621 25.7298 31.5921 25.8656H31.4822C31.3722 25.7663 31.3722 25.7663 31.4822 25.8656C31.5357 25.9073 31.5714 25.9676 31.5821 26.0344C31.5121 25.7961 31.5321 26.1138 31.5821 26.1336C31.4721 26.1336 31.6621 25.5579 31.5121 26.0741L34.0221 24.6545C33.3829 24.623 32.7769 24.362 32.3171 23.9201C31.8572 23.4781 31.5747 22.8854 31.5221 22.2522L29.5221 24.8134C29.9651 24.8229 30.4025 24.9138 30.8121 25.0814C31.0577 25.181 31.2895 25.3111 31.5021 25.4685C31.5021 25.4685 31.9521 25.9351 31.7521 25.6969C32.1021 26.1039 31.6722 25.6969 31.8022 25.6274C31.8022 25.0913 32.2222 24.7538 32.9322 24.6347C33.0216 24.6202 33.1127 24.6202 33.2021 24.6347C33.2021 24.7935 32.9921 24.4064 32.9421 24.3468C32.8921 24.2872 33.0122 24.3468 32.8722 24.1979C32.9075 24.3648 32.9075 24.5372 32.8722 24.7042L32.3421 25.5976L30.5721 25.8259L29.8421 25.1012L29.9021 25.2005C29.8121 24.8531 29.7222 24.5155 29.6222 24.2078V24.3269C29.6822 26.9278 33.7521 26.9377 33.6921 24.3269L33.7322 24.2773Z" fill="white" fill-opacity="0.47"></path><path d="M47.2022 10.4789C46.8258 10.2856 46.408 10.1852 45.9843 10.186C45.5605 10.1869 45.1432 10.289 44.7675 10.4837C44.3919 10.6784 44.069 10.96 43.8261 11.3048C43.5833 11.6495 43.4276 12.0472 43.3722 12.4642C43.2566 13.2068 43.3245 13.9662 43.5701 14.6769C43.8157 15.3876 44.2317 16.0285 44.7822 16.5442C45.2873 17.0838 45.9618 17.4374 46.6955 17.5473C47.4292 17.6573 48.1787 17.517 48.8217 17.1495C49.4648 16.7819 49.9632 16.2088 50.2358 15.5237C50.5083 14.8386 50.5387 14.082 50.3222 13.3775C50.1649 12.6644 49.7728 12.0235 49.2078 11.5562C48.6428 11.0888 47.9372 10.8215 47.2022 10.7965C46.4071 10.7986 45.6324 11.0463 44.9855 11.5053C44.3386 11.9642 43.8517 12.6116 43.5922 13.3577C42.4622 16.5442 46.2222 19.2145 49.0822 17.9935C49.5135 17.7989 49.8975 17.5145 50.2082 17.1595C50.5189 16.8045 50.749 16.3873 50.8827 15.9361C51.0165 15.485 51.0509 15.0106 50.9835 14.5451C50.9161 14.0796 50.7486 13.634 50.4922 13.2385C49.6625 11.7947 48.391 10.6507 46.8622 9.9726C46.3908 9.72176 45.8414 9.65705 45.3239 9.79144C44.8065 9.92583 44.3594 10.2494 44.0722 10.6973C43.8045 11.1619 43.731 11.7122 43.8675 12.23C44.004 12.7478 44.3396 13.1919 44.8022 13.4668C45.2518 13.6536 45.6753 13.8972 46.0622 14.1915C46.2809 14.3673 46.4789 14.5671 46.6522 14.7871C46.7022 14.8467 46.8722 15.2338 46.9722 15.2835C46.7722 15.1743 47.5322 14.2908 47.5422 14.2908H47.4922C47.0422 14.1816 47.7022 14.2908 47.4922 14.5191C47.4922 14.5191 47.4922 14.6382 47.4922 14.668C47.3222 14.9162 46.8422 14.7474 46.6722 14.668C46.553 14.5677 46.4632 14.4374 46.4122 14.2908C46.3825 14.2073 46.3825 14.1162 46.4122 14.0327C46.3322 14.2808 46.4122 14.2709 46.5022 14.0327C46.5197 13.9642 46.552 13.9002 46.5969 13.8454C46.6418 13.7905 46.6982 13.746 46.7622 13.715C46.8485 13.6399 46.9551 13.5915 47.0688 13.5756C47.1824 13.5598 47.2983 13.5771 47.4022 13.6257C47.8022 13.5264 47.6022 13.9533 47.5322 13.6257C47.5322 13.7249 47.4122 13.3477 47.4122 13.3477C47.4122 13.3477 47.4122 13.1889 47.4122 13.3477C47.4016 13.4993 47.3531 13.6459 47.271 13.7742C47.189 13.9024 47.0759 14.0084 46.9422 14.0823L45.9422 14.3503H46.1022L45.1022 14.0724L45.2622 14.1518C47.5822 15.3629 49.6422 11.8686 47.3122 10.6675L47.2022 10.4789Z" fill="white" fill-opacity="0.47"></path><path d="M58.0323 8.81128C58.0451 10.0432 58.541 11.2216 59.4148 12.0965C60.2886 12.9713 61.4715 13.4736 62.7123 13.4968C63.2364 13.4772 63.7337 13.2617 64.1045 12.8935C64.4754 12.5254 64.6925 12.0317 64.7123 11.5114C64.7201 9.50341 63.968 7.5657 62.605 6.08204C61.2419 4.59839 59.3672 3.677 57.3523 3.50034C56.8994 3.48554 56.4549 3.62382 56.0916 3.89253C55.7282 4.16125 55.4676 4.54448 55.3523 4.97946C54.5823 8.72194 57.6923 12.792 61.7423 12.3254C62.9123 12.1865 64.2223 11.1243 63.7423 9.76427C63.4103 8.76297 62.7135 7.92087 61.7886 7.40302C60.8636 6.88516 59.7772 6.7289 58.7423 6.96486C58.2224 7.111 57.7811 7.45409 57.5136 7.92018C57.2461 8.38627 57.1738 8.93803 57.3122 9.45654C57.466 9.96798 57.8133 10.4005 58.2812 10.6633C58.7492 10.9261 59.3015 10.9988 59.8222 10.8662C59.5722 10.8662 59.8222 10.9754 59.7622 10.8662C60.4223 10.0124 61.0723 9.15873 61.7623 8.31493C60.5323 8.45391 59.0123 7.49099 59.3023 6.08136L57.3023 7.57041C58.2414 7.72594 59.092 8.21381 59.6968 8.94378C60.3016 9.67375 60.6197 10.5964 60.5923 11.5412L62.5923 9.55581C62.5091 9.55457 62.4271 9.53674 62.351 9.50338C62.2749 9.47001 62.2064 9.42179 62.1495 9.36158C62.0925 9.30138 62.0484 9.23042 62.0197 9.15293C61.991 9.07545 61.9782 8.99302 61.9823 8.91055C61.9823 6.30968 57.8623 6.29975 57.9123 8.91055L58.0323 8.81128Z" fill="white" fill-opacity="0.47"></path><path d="M44.0521 29.9458C42.7306 30.6283 41.5819 31.5989 40.6921 32.7849C40.2991 33.4011 40.1333 34.1334 40.2226 34.8572C40.3119 35.5811 40.651 36.2519 41.1821 36.7558C41.6772 37.2182 42.2875 37.5411 42.9502 37.6912C43.613 37.8412 44.304 37.813 44.9521 37.6095C46.2688 37.0542 47.3797 36.1074 48.1321 34.8994C48.2865 34.6305 48.3775 34.3302 48.398 34.0213C48.4186 33.7124 48.3682 33.4029 48.2508 33.1162C48.1333 32.8294 47.9518 32.5728 47.7199 32.3659C47.488 32.1589 47.2118 32.0068 46.9121 31.9213C46.0365 31.6895 45.1224 31.6386 44.2262 31.7718C43.33 31.905 42.4709 32.2194 41.7021 32.6956C41.2353 32.9668 40.8962 33.4109 40.7593 33.9303C40.6224 34.4497 40.6989 35.0019 40.9721 35.4652C41.2453 35.9286 41.6927 36.2653 42.2159 36.4012C42.7391 36.5371 43.2953 36.4611 43.7621 36.1899C44.0577 35.9794 44.397 35.8371 44.7552 35.7735C45.1133 35.71 45.4813 35.7268 45.8321 35.8226L44.6121 32.8445C44.3656 33.147 44.0982 33.4323 43.8121 33.6982C43.4221 34.0655 43.6421 33.6386 43.8121 33.6982C43.9821 33.7578 44.0121 33.6982 43.8121 33.6982C43.8793 33.7038 43.9428 33.7318 43.9921 33.7776C44.056 33.8112 44.1083 33.8631 44.1421 33.9265C44.2414 34.0843 44.2941 34.2666 44.2941 34.4527C44.2941 34.6387 44.2414 34.821 44.1421 34.9788C44.1421 34.9788 44.7121 34.413 44.7421 34.3832C45.1835 34.0002 45.6664 33.6672 46.1821 33.3905C48.4621 32.0999 46.4121 28.6056 44.1821 29.8961L44.0521 29.9458Z" fill="white" fill-opacity="0.47"></path><path d="M31.2821 40.2597L32.6321 44.2305C32.7216 44.5258 32.8766 44.7974 33.0856 45.0255C33.2947 45.2535 33.5526 45.4322 33.8403 45.5483C34.1281 45.6645 34.4384 45.7152 34.7484 45.6967C35.0585 45.6783 35.3604 45.5911 35.6321 45.4417C36.1412 45.1425 36.5787 44.7369 36.9142 44.2532C37.2498 43.7694 37.4752 43.219 37.5751 42.6401C37.675 42.0612 37.6469 41.4677 37.4927 40.9006C37.3385 40.3336 37.0619 39.8067 36.6821 39.3563C36.2927 38.9303 35.8147 38.5934 35.2811 38.3688C34.7476 38.1443 34.1713 38.0375 33.5921 38.0559C32.95 38.0901 32.3245 38.2709 31.7643 38.5843C31.2041 38.8977 30.7242 39.3351 30.3621 39.8626C30.2215 40.0906 30.1287 40.3445 30.0894 40.609C30.05 40.8735 30.0648 41.1431 30.133 41.4018C30.2012 41.6604 30.3213 41.9027 30.4861 42.1142C30.6509 42.3256 30.857 42.5018 31.0921 42.6323C31.5604 42.8899 32.1107 42.9583 32.6285 42.8233C33.1463 42.6883 33.5917 42.3603 33.8721 41.9076C33.7421 42.0764 33.7421 42.0366 33.5621 42.1458C33.7821 42.1458 33.8121 42.0863 33.6721 42.1458C33.5321 42.2054 33.5721 42.1458 33.7921 42.1458C33.7564 42.137 33.7229 42.1209 33.6937 42.0988C33.6644 42.0766 33.6401 42.0487 33.6221 42.0168L33.7121 42.1061C33.4521 41.7885 33.7121 42.0466 33.6421 42.1061C33.6421 41.8977 33.6421 41.8679 33.6421 42.0168C33.6421 42.1657 33.6421 42.1458 33.6421 41.9374V42.1161C33.7321 41.9175 33.7221 41.9175 33.6421 42.1161C33.6921 41.987 34.0721 41.7785 33.7021 41.987L36.7021 43.1981L35.3521 39.2273C35.1962 38.7172 34.8485 38.2863 34.3812 38.0238C33.9139 37.7614 33.3628 37.6875 32.8421 37.8176C32.3248 37.9637 31.886 38.3057 31.6204 38.77C31.3547 39.2342 31.2835 39.7835 31.4221 40.2994L31.2821 40.2597Z" fill="white" fill-opacity="0.47"></path><path d="M56.7123 21.3589C56.2986 21.6341 55.9544 22.0003 55.7064 22.429C55.4584 22.8577 55.3133 23.3373 55.2823 23.8307C55.2393 24.5578 55.4359 25.2791 55.8423 25.8855C56.1072 26.2774 56.4577 26.6049 56.8678 26.8437C57.2779 27.0824 57.737 27.2262 58.2108 27.2644C58.6847 27.3025 59.1611 27.2341 59.6046 27.0641C60.0481 26.8941 60.4472 26.627 60.7723 26.2826C61.1147 25.9412 61.3776 25.5293 61.5424 25.0761C61.7071 24.6229 61.7698 24.1394 61.726 23.6596C61.6821 23.1797 61.5328 22.7153 61.2885 22.2989C61.0443 21.8826 60.711 21.5244 60.3123 21.2497C59.6211 20.7923 58.7912 20.5877 57.9647 20.671C57.1383 20.7543 56.3667 21.1203 55.7823 21.7064C55.5932 21.8941 55.4432 22.1169 55.3408 22.3622C55.2385 22.6075 55.1858 22.8703 55.1858 23.1358C55.1858 23.4013 55.2385 23.6642 55.3408 23.9094C55.4432 24.1547 55.5932 24.3776 55.7823 24.5653C56.1642 24.9444 56.6822 25.1574 57.2223 25.1574C57.4897 25.1574 57.7545 25.1051 58.0016 25.0035C58.2487 24.9019 58.4732 24.753 58.6623 24.5653C58.9123 24.2973 58.2223 24.8035 58.6623 24.5653L58.4323 24.6645C58.6423 24.6149 58.5723 24.6149 58.2123 24.6645H58.3723C58.5323 24.6645 58.4423 24.6645 58.1023 24.6645H58.3123L58.0323 24.5355L58.2123 24.6447C57.9523 24.4263 57.8923 24.3866 58.0423 24.5355L57.8523 24.2973C57.7323 23.9796 57.7123 23.92 57.7723 24.1285C57.7723 23.8009 57.7723 23.7116 57.7723 23.8803C57.7723 24.0491 57.7723 23.9498 57.7723 23.6222C57.7123 23.8307 57.7723 23.7711 57.8523 23.4733C57.7723 23.6123 57.7823 23.6024 57.8523 23.4733C58.2623 23.1656 57.2523 23.8704 58.0023 23.3443L57.9023 23.4038C58.0756 23.2871 58.2833 23.2312 58.4923 23.245C58.3223 23.245 58.3323 23.245 58.4923 23.245C58.6609 23.2443 58.8253 23.2964 58.9623 23.3939C58.7823 23.2847 58.8423 23.3344 59.1323 23.5329C59.0323 23.4237 59.0423 23.4435 59.1323 23.5925C59.2223 23.7414 59.2623 23.7612 59.1323 23.5925C59.2656 23.93 59.2956 23.9994 59.2223 23.8009C59.1423 23.4634 59.2223 24.327 59.2223 23.9498C59.2223 23.5726 59.0823 24.4263 59.2223 24.0987C59.0623 24.4263 59.0323 24.5057 59.1323 24.327C59.0212 24.5135 58.8626 24.6676 58.6723 24.7737C59.1171 24.4899 59.4492 24.062 59.6123 23.5627C59.7499 23.0359 59.6745 22.4765 59.4023 22.0042C59.1253 21.545 58.6779 21.2118 58.1563 21.0764C57.6347 20.9409 57.0804 21.0138 56.6123 21.2795L56.7123 21.3589Z" fill="white" fill-opacity="0.47"></path><path d="M29.5221 50.2863C28.8043 50.5405 28.1621 50.9693 27.6543 51.5335C27.1465 52.0977 26.7892 52.7792 26.6151 53.5157C26.4411 54.2523 26.4558 55.0204 26.6579 55.7499C26.86 56.4794 27.2431 57.147 27.7721 57.6916C28.157 58.0651 28.6739 58.2742 29.2121 58.2742C29.7504 58.2742 30.2672 58.0651 30.6521 57.6916C31.8521 56.4706 32.7921 54.7136 31.7421 53.0757C31.5224 52.71 31.222 52.3984 30.8635 52.1645C30.5051 51.9305 30.0979 51.7802 29.6726 51.7248C29.2473 51.6694 28.8149 51.7103 28.4078 51.8446C28.0007 51.9788 27.6295 52.2029 27.3221 52.4999C26.9505 52.8844 26.7431 53.3966 26.7431 53.9294C26.7431 54.4622 26.9505 54.9743 27.3221 55.3588C27.707 55.7323 28.2239 55.9414 28.7621 55.9414C29.3003 55.9414 29.8172 55.7323 30.2021 55.3588C29.9605 55.5785 29.6447 55.7004 29.3171 55.7004C28.9894 55.7004 28.6737 55.5785 28.4321 55.3588C28.2172 55.1081 28.1094 54.7839 28.1321 54.4555C28.0721 54.4555 27.8421 54.7235 27.7721 54.793H30.6521C30.4121 54.5647 30.6521 54.8823 30.5821 54.7136C30.5121 54.5448 30.5221 54.6143 30.5821 54.7136C30.6421 54.8128 30.5821 54.8128 30.5821 54.7136C30.5821 54.6143 30.5821 54.6044 30.5821 54.8128V54.4753C30.5821 54.6739 30.5821 54.7036 30.5821 54.5547C30.5821 54.4058 30.6821 54.1577 30.5821 54.3661C30.4821 54.5746 30.6921 54.1775 30.7221 54.1279C30.5721 54.3463 30.6321 54.1279 30.7221 54.1279C30.5621 54.2371 30.5421 54.247 30.6621 54.1279C30.7821 54.0088 30.7621 54.0584 30.5821 54.1279C31.0963 53.9731 31.5312 53.6284 31.7973 53.1649C32.0633 52.7015 32.1401 52.1544 32.0121 51.6363C31.8628 51.122 31.5163 50.6863 31.047 50.4228C30.5777 50.1593 30.0231 50.0889 29.5021 50.2267L29.5221 50.2863Z" fill="white" fill-opacity="0.47"></path><path d="M54.0922 51.1596C54.3622 51.5368 54.0922 50.7724 54.1522 51.2688C54.1522 51.5666 54.1522 51.8644 54.2422 52.1622C54.3276 52.9208 54.6821 53.6246 55.2422 54.1476C55.7646 54.6021 56.4244 54.8713 57.1178 54.9126C57.8112 54.954 58.4987 54.7651 59.0721 54.3759C59.6783 53.9918 60.1559 53.4377 60.4443 52.7837C60.7327 52.1298 60.819 51.4056 60.6921 50.7029C60.3825 49.4052 59.643 48.2481 58.5922 47.4171C58.2662 47.1171 57.8541 46.9253 57.4133 46.8683C56.9724 46.8114 56.5246 46.8922 56.1321 47.0995C55.2749 47.4913 54.514 48.0638 53.9022 48.7771C53.5329 49.1627 53.3269 49.6745 53.3269 50.2066C53.3269 50.7387 53.5329 51.2504 53.9022 51.6361C54.5524 52.3026 55.4394 52.6902 56.3737 52.7162C57.3079 52.7421 58.2154 52.4044 58.9022 51.775C59.2841 51.3959 59.4987 50.8817 59.4987 50.3456C59.4987 49.8094 59.2841 49.2952 58.9022 48.9161C58.5202 48.537 58.0023 48.324 57.4622 48.324C56.9221 48.324 56.4041 48.537 56.0222 48.9161C56.0877 48.8462 56.169 48.7926 56.2593 48.7598C56.3497 48.7271 56.4467 48.716 56.5422 48.7275C56.7122 48.7275 57.0321 49.065 56.7521 48.7275V51.5864C57.1205 51.1367 57.6041 50.7938 58.1522 50.5937L55.6822 50.2761C56.0978 50.5812 56.4394 50.9746 56.6822 51.4276C56.6122 51.2886 56.6122 51.3283 56.6822 51.5666C56.66 51.52 56.6484 51.4692 56.6484 51.4177C56.6484 51.3662 56.66 51.3153 56.6822 51.2688C56.698 51.1537 56.7547 51.0481 56.8422 50.971C56.6722 51.1298 56.6722 51.1397 56.8422 50.971C57.0841 50.9055 57.34 50.912 57.5782 50.9896C57.8165 51.0673 58.0265 51.2127 58.1822 51.4077C58.2119 51.4415 58.2343 51.4809 58.2481 51.5236C58.2619 51.5663 58.2666 51.6113 58.2621 51.6559V51.239C58.2399 50.4832 58.0081 49.7481 57.5922 49.1146C57.3101 48.6638 56.8647 48.3374 56.3476 48.2026C55.8305 48.0678 55.281 48.1349 54.8121 48.39C54.3475 48.6631 54.0103 49.1072 53.8736 49.6258C53.7369 50.1444 53.8119 50.6955 54.0822 51.1596H54.0922Z" fill="white" fill-opacity="0.47"></path><path d="M60.5922 33.2713C60.1629 34.058 59.9892 34.9573 60.0948 35.8459C60.2004 36.7344 60.5802 37.5689 61.1822 38.2348C61.8279 38.8739 62.687 39.256 63.5972 39.3091C64.5074 39.3621 65.4056 39.0824 66.1222 38.5227C66.4926 38.2508 66.8003 37.9037 67.0248 37.5045C67.2493 37.1052 67.3855 36.6631 67.4243 36.2074C67.4631 35.7518 67.4036 35.2932 67.2498 34.8622C67.0959 34.4312 66.8513 34.0378 66.5322 33.7081C66.2305 33.3881 65.8675 33.131 65.4646 32.952C65.0616 32.7729 64.6266 32.6755 64.1853 32.6653C63.7439 32.6551 63.3049 32.7325 62.894 32.8928C62.4831 33.0531 62.1085 33.2931 61.7922 33.5989C61.4103 33.978 61.1957 34.4922 61.1957 35.0284C61.1957 35.5645 61.4103 36.0787 61.7922 36.4579C62.1741 36.837 62.6921 37.05 63.2322 37.05C63.7723 37.05 64.2903 36.837 64.6722 36.4579C64.7922 36.3288 64.7822 36.3288 64.6722 36.4579C64.5681 36.5545 64.4407 36.6229 64.3022 36.6564H64.0022C64.1822 36.6564 64.1722 36.6564 64.0022 36.6564C63.8322 36.6564 63.8122 36.6564 64.0022 36.6564L63.7622 36.5671C64.1222 36.7259 63.4822 36.2891 63.7622 36.5671C63.5968 36.4105 63.4969 36.1978 63.4822 35.9714C63.4822 35.8325 63.6022 35.3857 63.4822 35.6935C63.4822 35.624 63.8622 35.1177 63.6322 35.3758L63.8222 35.2368C63.6622 35.3162 63.6522 35.3262 63.8222 35.2368C63.9922 35.1475 63.7422 35.3361 63.6622 35.2368H63.9122C63.7222 35.2368 63.7122 35.2368 63.9122 35.2368C64.1122 35.2368 64.0822 35.2368 63.9122 35.2368L64.1422 35.3162C64.3122 35.4751 64.3422 35.4949 64.2422 35.3957C64.1422 35.2964 64.1622 35.3262 64.3122 35.5049C64.1622 35.1574 64.4022 35.7034 64.3122 35.5049C64.2222 35.3063 64.3122 35.217 64.3122 35.5049C64.3122 35.2964 64.4022 35.0383 64.3122 35.4056C64.3122 35.2964 64.5222 34.8695 64.3122 35.2865C64.5716 34.8216 64.6406 34.2753 64.5046 33.7613C64.3686 33.2473 64.0382 32.8051 63.5822 32.5267C63.1147 32.2584 62.5595 32.184 62.0371 32.3197C61.5147 32.4554 61.0674 32.7902 60.7922 33.2514L60.5922 33.2713Z" fill="white" fill-opacity="0.47"></path><path d="M73.7322 15.4225C72.8522 17.0108 72.5022 19.1749 73.8922 20.6045C74.2515 20.9464 74.6844 21.2029 75.1581 21.3548C75.6318 21.5066 76.1341 21.5497 76.627 21.4809C77.1199 21.4121 77.5907 21.2331 78.0038 20.9575C78.417 20.6819 78.7618 20.3168 79.0122 19.8897C79.2638 19.484 79.4159 19.0253 79.456 18.5506C79.4961 18.0758 79.4232 17.5984 79.2431 17.1568C79.0631 16.7152 78.7809 16.3218 78.4194 16.0085C78.0579 15.6951 77.6273 15.4706 77.1622 15.353C76.3137 15.1264 75.4096 15.2398 74.6445 15.6687C73.8795 16.0977 73.3148 16.8078 73.0722 17.6462C72.9263 18.1635 72.9935 18.7172 73.2588 19.1854C73.5242 19.6536 73.9661 19.998 74.4872 20.1428C75.0084 20.2876 75.5661 20.221 76.0378 19.9576C76.5094 19.6941 76.8563 19.2555 77.0022 18.7381C77.0022 18.5793 77.0022 18.5892 77.0022 18.7381C76.9537 18.8807 76.8674 19.0076 76.7522 19.1054C77.0222 18.8374 76.3422 19.3437 76.6922 19.1054L76.4122 19.2246C76.6222 19.1749 76.5522 19.1749 76.2022 19.2246C76.2922 19.2246 76.6322 19.2246 76.2722 19.2246C76.1733 19.2161 76.0776 19.1855 75.9922 19.1352C76.0722 19.1352 75.6722 18.8672 75.6022 18.758C75.4671 18.5054 75.4281 18.2129 75.4922 17.934C75.6222 17.666 75.6522 17.6064 75.5722 17.7454C75.4922 17.8844 75.5722 17.8248 75.6922 17.5965C75.4522 17.8844 76.0322 17.4079 75.6922 17.5965L75.9322 17.4873H76.1622H76.3822L76.9322 17.7951C76.7722 17.6362 76.7922 17.6561 76.9822 17.8745C77.0114 17.9491 77.0447 18.022 77.0822 18.0929C76.9422 17.7653 77.0222 18.4205 77.0822 18.0929C77.1422 17.7653 76.9322 18.5098 77.0822 18.0035C77.0822 17.8546 77.1722 17.6958 77.2322 17.5469C77.1122 17.8645 77.2322 17.6263 77.3022 17.4575C77.5754 16.9942 77.652 16.442 77.515 15.9226C77.3781 15.4032 77.039 14.959 76.5722 14.6878C76.3411 14.5536 76.0856 14.4658 75.8203 14.4296C75.555 14.3933 75.2851 14.4093 75.026 14.4766C74.5028 14.6125 74.0554 14.9492 73.7822 15.4125L73.7322 15.4225Z" fill="white" fill-opacity="0.47"></path><path d="M93.6822 1.62391C93.1707 1.30549 92.5997 1.09298 92.0034 0.999157C91.4071 0.905332 90.7978 0.932125 90.2122 1.07792C89.8065 1.19767 89.437 1.4154 89.1368 1.71164C88.8366 2.00789 88.6152 2.37339 88.4922 2.77544C88.3054 3.45448 88.3271 4.17343 88.5546 4.84014C88.7821 5.50685 89.2049 6.09093 89.7689 6.51753C90.3329 6.94413 91.0125 7.1938 91.7204 7.23455C92.4283 7.2753 93.1323 7.10526 93.7422 6.74623C94.1882 6.45151 94.5625 6.06194 94.838 5.60577C95.1135 5.1496 95.2833 4.63826 95.335 4.10887C95.3867 3.57948 95.319 3.04531 95.1369 2.5451C94.9548 2.04488 94.6629 1.59118 94.2822 1.2169C93.8714 0.870209 93.3882 0.618192 92.8676 0.478962C92.3469 0.339732 91.8016 0.31675 91.271 0.41167C90.7403 0.506589 90.2374 0.717051 89.7984 1.02793C89.3595 1.3388 88.9953 1.74236 88.7322 2.2096C88.459 2.67297 88.3825 3.22509 88.5194 3.7445C88.6563 4.26391 88.9954 4.70805 89.4622 4.97923C89.929 5.25041 90.4852 5.32641 91.0084 5.19051C91.5316 5.0546 91.979 4.71793 92.2522 4.25456C92.4722 3.77807 92.0322 4.41339 92.2522 4.25456L92.0122 4.43325C92.2022 4.33398 92.1422 4.3439 91.8322 4.43325L92.0622 4.36376H91.7422H91.9722C91.6322 4.3042 91.5622 4.29427 91.7722 4.36376C91.9822 4.43325 91.3822 4.10566 91.7122 4.36376C91.4522 4.15529 91.4022 4.12551 91.5622 4.26449L91.3822 4.04609C91.4822 4.23471 91.4622 4.17515 91.3222 3.88726C91.3222 4.09573 91.3222 4.03617 91.3222 3.68872C91.3222 4.05602 91.4722 3.25194 91.3222 3.61923C91.1722 3.98653 91.5322 3.19237 91.3222 3.61923C91.2022 3.79792 91.2322 3.75821 91.4222 3.49018C91.3022 3.60931 91.3022 3.60931 91.4222 3.49018C91.5722 3.39091 91.5722 3.38099 91.4222 3.49018C91.7422 3.37106 91.7922 3.34128 91.5822 3.40084C91.7254 3.35592 91.879 3.35592 92.0222 3.40084C92.2022 3.40084 92.2122 3.40084 92.0222 3.40084C92.3022 3.53982 92.3522 3.54974 92.1522 3.40084C92.3722 3.58945 92.4222 3.62916 92.3122 3.51996C91.9522 3.2023 92.4322 3.80785 92.3122 3.47033C92.4122 3.74828 92.4422 3.80785 92.3922 3.65894C92.3709 3.60075 92.3542 3.54101 92.3422 3.48026C92.5422 3.60931 92.2122 4.37368 92.4222 3.80785L91.4922 5.00901C91.6522 4.90974 91.6522 4.89981 91.4922 5.00901C91.3766 5.06221 91.2494 5.0861 91.1222 5.0785C91.4922 5.0785 90.8822 4.96931 91.1222 5.0785C91.3622 5.1877 91.3822 5.15792 91.5022 5.19763C91.1822 5.09836 91.4122 5.19762 91.5922 5.24726C92.0609 5.51039 92.6143 5.5819 93.1352 5.4466C93.6561 5.31131 94.1034 4.97986 94.3822 4.52259C94.6493 4.05945 94.7226 3.51066 94.586 2.99447C94.4495 2.47827 94.1141 2.03598 93.6522 1.76289L93.6822 1.62391Z" fill="white" fill-opacity="0.47"></path><path d="M70.4122 5.95221C70.2549 6.6732 70.2893 7.42244 70.5122 8.12619C70.6386 8.61644 70.9002 9.06197 71.2677 9.41271C71.6351 9.76344 72.0938 10.0055 72.5922 10.1116C73.063 10.1698 73.5406 10.0865 73.9631 9.87234C74.3856 9.6582 74.7337 9.3231 74.9622 8.91041C75.2591 8.39151 75.3395 7.77786 75.1862 7.20085C75.033 6.62383 74.6582 6.12931 74.1422 5.82316C73.6742 5.55746 73.1198 5.48452 72.5982 5.62001C72.0766 5.75549 71.6292 6.0886 71.3522 6.54782C71.0931 7.01535 71.0254 7.56401 71.1632 8.0798C71.301 8.59558 71.6338 9.03882 72.0922 9.31741V9.31741L71.6723 8.99975C71.5623 8.86078 71.4622 8.7218 71.3522 8.59275L71.1522 8.10634C71.1522 7.92766 71.1522 7.74897 71.0822 7.57029V7.81846C71.0822 7.63978 71.0822 7.45117 71.1622 7.27248V7.38168L71.3623 6.90519C71.3498 6.94222 71.3293 6.9761 71.3023 7.00446L71.6223 6.58753C71.6012 6.62179 71.5741 6.65205 71.5423 6.67687L71.9522 6.35921H71.9022L72.3922 6.15074C72.3595 6.15961 72.325 6.15961 72.2922 6.15074L72.8322 6.08126H72.7822L73.3222 6.15074L73.8122 6.35921L74.5422 7.08387C74.4435 6.94751 74.3597 6.80109 74.2922 6.64709L74.4923 7.13351C74.4212 6.9442 74.3709 6.74784 74.3422 6.54782C74.3422 6.7265 74.3422 6.90519 74.4122 7.08387C74.3922 6.9157 74.3922 6.74577 74.4122 6.5776C74.4122 6.75628 74.4122 6.94489 74.3422 7.12358V7.02431C74.473 6.50145 74.4016 5.94893 74.1422 5.47572C74.0108 5.24235 73.8333 5.03773 73.6203 4.87413C73.4073 4.71053 73.1632 4.59132 72.9027 4.52364C72.6421 4.45597 72.3705 4.44123 72.1041 4.48031C71.8377 4.51939 71.5819 4.61148 71.3522 4.75106C71.1228 4.87753 70.9218 5.04937 70.7619 5.25597C70.6019 5.46256 70.4863 5.69952 70.4223 5.95221H70.4122Z" fill="white" fill-opacity="0.47"></path><path d="M35.0823 68.1545C34.6483 67.719 34.1125 67.3968 33.5226 67.2167C32.9327 67.0367 32.3071 67.0043 31.7016 67.1225C31.0961 67.2407 30.5294 67.5059 30.0521 67.8943C29.5749 68.2827 29.2019 68.7823 28.9664 69.3486C28.7309 69.9149 28.6402 70.5302 28.7024 71.1397C28.7646 71.7493 28.9777 72.334 29.3229 72.8419C29.668 73.3498 30.1344 73.765 30.6804 74.0505C31.2265 74.336 31.8352 74.4829 32.4523 74.4782C35.1823 74.4782 36.8923 71.3114 35.7023 69.0083C35.4048 68.4967 34.9845 68.0661 34.4789 67.7548C33.9733 67.4434 33.398 67.2609 32.8041 67.2236C32.2103 67.1863 31.6164 67.2952 31.0752 67.5408C30.534 67.7863 30.0624 68.1609 29.7023 68.631C27.8923 71.2518 31.2523 74.7263 33.9723 73.1479C34.206 73.0174 34.4109 72.8416 34.5748 72.631C34.7387 72.4203 34.8583 72.1791 34.9264 71.9216C34.9945 71.6641 35.0098 71.3957 34.9713 71.1323C34.9328 70.8688 34.8413 70.6158 34.7023 70.3882C34.4236 69.9335 33.9782 69.6039 33.4597 69.4688C32.9411 69.3336 32.39 69.4034 31.9223 69.6635C32.1361 69.5484 32.3833 69.5099 32.6223 69.5543C32.6923 69.5543 33.0923 69.7131 32.9623 69.6436C32.8323 69.5741 33.3323 69.9613 33.0223 69.6436C33.1456 69.7644 33.2352 69.9149 33.2823 70.0804C33.2023 69.8025 33.2823 70.14 33.2823 70.2392C33.2833 70.4666 33.2056 70.6874 33.0623 70.8647C33.0623 70.8647 32.7023 71.1724 32.8323 71.0831C32.9623 70.9937 32.4023 71.3114 32.3723 71.2022C32.462 71.1923 32.5526 71.1923 32.6423 71.2022H32.3723C32.5423 71.2617 32.5423 71.2022 32.3723 71.2022C31.9923 71.2022 32.6423 71.2022 32.2823 71.1426C32.1523 71.0334 32.1523 71.0334 32.2823 71.1426L32.1323 70.9441C32.0623 70.8448 32.0023 70.6165 32.1323 70.8647V70.6264C32.1323 70.815 32.1323 70.825 32.1323 70.6264C32.2323 70.2293 32.0223 70.9044 32.1323 70.547C32.2423 70.1896 31.8823 70.7952 32.2423 70.4179L32.0223 70.6264C32.0223 70.5569 32.3623 70.4279 32.4123 70.408C31.9823 70.5768 32.6823 70.408 32.4123 70.408C32.1423 70.408 32.6423 70.4676 32.6823 70.4775C32.7223 70.4874 32.8223 70.5371 32.6823 70.4775L32.8523 70.6066C32.7923 70.4378 32.7723 70.5172 32.8523 70.676C32.7923 70.5867 32.7023 70.2889 32.7423 70.5172C32.7823 70.7455 32.8123 70.2293 32.7423 70.5867C32.7423 70.7654 32.7423 70.7555 32.7423 70.5867V70.825C32.7423 70.9639 32.5723 71.1029 32.7423 70.9143C32.7423 70.9739 32.3123 71.3213 32.4723 71.1923C32.6323 71.0632 32.7723 71.1128 32.5523 71.1923C32.3323 71.2717 32.4123 71.2518 32.5523 71.1923C32.6923 71.1327 32.6423 71.1923 32.3623 71.1923C32.4613 71.1725 32.5633 71.1725 32.6623 71.1923C32.6623 71.1923 32.2223 71.1923 32.5423 71.1923C32.3023 71.0831 32.2523 71.0632 32.3823 71.1327L32.2523 71.0434C32.6342 71.4225 33.1522 71.6355 33.6923 71.6355C33.9597 71.6355 34.2246 71.5832 34.4716 71.4816C34.7187 71.38 34.9432 71.2311 35.1323 71.0434C35.3214 70.8556 35.4714 70.6328 35.5737 70.3875C35.6761 70.1422 35.7288 69.8793 35.7288 69.6138C35.7288 69.3484 35.6761 69.0855 35.5737 68.8402C35.4714 68.5949 35.3214 68.372 35.1323 68.1843L35.0823 68.1545Z" fill="white" fill-opacity="0.47"></path><path d="M69.5922 43.4065C68.7525 43.9628 68.058 44.7092 67.566 45.5843C67.074 46.4593 66.7984 47.438 66.7622 48.4395C66.7479 48.8903 66.8886 49.3326 67.1612 49.6935C67.4339 50.0544 67.8222 50.3123 68.2622 50.4249C69.7634 50.8235 71.3603 50.6537 72.7423 49.9484C73.3896 49.547 73.9078 48.9701 74.2356 48.2859C74.5634 47.6017 74.6872 46.8386 74.5923 46.0868C74.4645 45.3016 74.055 44.5887 73.4394 44.0796C72.8237 43.5706 72.0433 43.2998 71.2423 43.3172C69.79 43.4402 68.4274 44.0656 67.3922 45.0842C67.0103 45.4633 66.7958 45.9775 66.7958 46.5137C66.7958 47.0498 67.0103 47.564 67.3922 47.9431C67.7741 48.3223 68.2921 48.5352 68.8322 48.5352C69.3723 48.5352 69.8903 48.3223 70.2722 47.9431C70.3622 47.8736 70.4922 47.7644 70.3222 47.9431C70.4559 47.8414 70.5963 47.7486 70.7423 47.6652L71.1023 47.4666C71.3823 47.3277 70.8623 47.5262 71.1623 47.4666C71.4623 47.4071 71.4023 47.4666 71.2423 47.4666C71.0148 47.3971 70.8197 47.2492 70.6922 47.0497C70.6922 46.9703 70.6223 46.4938 70.6123 46.7221C70.6023 46.9504 70.6123 46.3747 70.6123 46.7221C70.6123 46.8313 70.6123 46.8313 70.6123 46.7221C70.6123 46.6129 70.6123 46.603 70.6123 46.7221C70.6123 46.8412 70.5523 46.8214 70.6123 46.7221C70.6723 46.6228 70.6723 46.6228 70.5423 46.7221C70.5909 46.65 70.6664 46.6 70.7522 46.5831C70.6148 46.6288 70.4745 46.6653 70.3322 46.6923C70.5522 46.6923 70.2822 46.6923 70.2122 46.6923C69.941 46.6959 69.67 46.6759 69.4022 46.6328L70.8922 48.6182C70.9124 48.3247 70.9906 48.0379 71.1223 47.7744C71.1223 47.7049 71.5323 47.2185 71.3423 47.4369C71.4023 47.3574 71.9322 46.9207 71.7122 47.0795C72.1671 46.7976 72.4962 46.3537 72.6319 45.8387C72.7677 45.3238 72.6998 44.7768 72.4422 44.3099C72.1652 43.8506 71.7179 43.5175 71.1963 43.382C70.6747 43.2465 70.1203 43.3195 69.6522 43.5852L69.5922 43.4065Z" fill="white" fill-opacity="0.47"></path><path d="M14.5121 47.1491C13.9637 47.3389 13.4661 47.6503 13.0571 48.0597C12.6482 48.4691 12.3387 48.9657 12.1521 49.5117C11.9958 50.005 11.947 50.5257 12.0091 51.0392C12.0711 51.5527 12.2426 52.0472 12.5121 52.4897C12.7481 52.865 13.0978 53.1565 13.511 53.3224C13.9242 53.4882 14.3796 53.5199 14.8121 53.413C15.5188 53.2487 16.1689 52.9011 16.6959 52.4058C17.223 51.9105 17.6082 51.2852 17.8121 50.5937C17.9032 50.2906 17.92 49.9704 17.8612 49.6596C17.8024 49.3488 17.6696 49.0564 17.4739 48.8068C17.2783 48.5572 17.0254 48.3577 16.7363 48.2247C16.4473 48.0918 16.1304 48.0293 15.8121 48.0425C15.224 48.0103 14.6413 48.1693 14.1524 48.4953C13.6634 48.8213 13.2947 49.2966 13.1021 49.8492C13.0134 50.1457 12.9847 50.4568 13.0177 50.7644C13.0507 51.0721 13.1448 51.3701 13.2945 51.6415C13.4442 51.9128 13.6465 52.152 13.8898 52.3453C14.1332 52.5386 14.4126 52.6822 14.7121 52.7677C15.037 52.8454 15.3754 52.8493 15.7021 52.7791C16.0288 52.7088 16.3352 52.5663 16.5986 52.3621C16.8621 52.1578 17.0756 51.8972 17.2234 51.5996C17.3712 51.302 17.4494 50.9751 17.4521 50.6433C17.4514 50.3156 17.3764 49.9922 17.2327 49.6972C17.0889 49.4021 16.8801 49.143 16.6218 48.939C16.3634 48.7349 16.0621 48.5912 15.7402 48.5185C15.4183 48.4458 15.084 48.446 14.7621 48.519C14.2422 48.6651 13.8009 49.0082 13.5334 49.4743C13.2659 49.9404 13.1936 50.4921 13.3321 51.0106C13.4734 51.5335 13.8149 51.9809 14.2839 52.2572C14.7528 52.5336 15.312 52.617 15.8421 52.4897H15.9021L14.3321 52.2912L13.6021 51.5665V49.8095L14.3321 49.0848L15.3321 48.8069H15.7121L16.6121 49.333C16.7121 49.9683 16.8021 50.6036 16.9021 51.2489L16.1721 51.9735C16.3821 51.8346 16.3121 51.8346 15.9821 51.9735C15.6521 52.1125 15.5721 52.0728 15.8221 52.053L13.8221 49.4918C13.6821 49.9087 14.0521 49.1642 13.8221 49.4918C13.9921 49.2933 14.0321 49.2536 13.9221 49.3628L13.7821 49.5117L13.9721 49.3628C13.8922 49.415 13.8087 49.4614 13.7221 49.5017L13.9521 49.4025L13.6821 49.472L15.9721 50.3952C15.8221 50.1569 16.0321 50.5143 16.0221 50.5738C16.0121 50.6334 15.9121 50.0676 16.0221 50.5044C16.1321 50.9411 16.0221 50.5639 16.0221 50.5044C16.0221 50.2562 15.9321 51.0503 16.0221 50.6433C16.1121 50.2363 16.0221 50.7724 15.9521 50.7922L16.0721 50.5937L15.8921 50.822C16.0121 50.7128 16.0021 50.7128 15.8921 50.822H15.8221C15.9621 50.7426 15.8821 50.822 15.6021 50.9014C16.1166 50.751 16.5521 50.4082 16.817 49.9452C17.0818 49.4823 17.1554 48.9354 17.0221 48.4197C16.8771 47.9043 16.5335 47.4664 16.0656 47.2007C15.5977 46.935 15.0431 46.863 14.5221 47.0002L14.5121 47.1491Z" fill="white" fill-opacity="0.47"></path><path d="M17.3723 64.1443C16.7982 64.15 16.2333 64.2876 15.7217 64.5461C15.2101 64.8047 14.7658 65.1773 14.4235 65.6348C14.0811 66.0922 13.8501 66.6221 13.7485 67.183C13.6468 67.7438 13.6773 68.3204 13.8375 68.8676C13.9978 69.4148 14.2834 69.9178 14.6721 70.3371C15.0608 70.7565 15.5421 71.0809 16.0781 71.2849C16.6141 71.4888 17.1904 71.5669 17.7619 71.5129C18.3334 71.459 18.8846 71.2745 19.3723 70.9738C21.3723 69.7231 21.6722 66.5068 19.5322 65.2164C17.5322 64.0351 14.5922 65.4943 14.7222 67.8966C14.7222 68.4323 14.9366 68.9461 15.3183 69.325C15.6999 69.7038 16.2175 69.9166 16.7572 69.9166C17.2969 69.9166 17.8146 69.7038 18.1962 69.325C18.5778 68.9461 18.7923 68.4323 18.7923 67.8966C18.7923 67.6484 18.7922 67.7179 18.6922 68.0951C18.6916 68.198 18.6679 68.2994 18.6229 68.3921C18.578 68.4848 18.5129 68.5665 18.4323 68.6311C18.1923 68.79 18.1422 68.8297 18.2722 68.7503C18.4022 68.6708 18.3422 68.7503 18.0922 68.8197C18.3922 68.7106 17.9523 68.8197 17.8023 68.8197C17.5793 68.7925 17.3735 68.6868 17.2222 68.5219C17.0601 68.345 16.9678 68.1159 16.9622 67.8767C16.9622 68.383 16.9622 67.4201 16.9622 67.9263L17.0423 67.7179C16.9423 67.8767 16.9423 67.8866 17.0423 67.7179C17.0903 67.6167 17.1765 67.5383 17.2822 67.4995L17.4123 67.4499C17.1523 67.4995 17.8123 67.3903 17.4123 67.4499C17.6723 67.4499 17.7222 67.4499 17.5722 67.4499C17.4222 67.4499 17.4722 67.4499 17.6922 67.5094C17.3622 67.2811 17.8523 67.7973 17.6023 67.4499C17.6623 67.5194 17.8322 67.9363 17.7822 67.7377C17.7322 67.5392 17.7822 68.0058 17.7822 68.0852C17.8422 67.5491 17.7222 68.4822 17.7822 67.966C17.6522 68.1348 17.6322 68.1646 17.7822 68.0554C17.9322 67.9462 17.8622 67.976 17.6922 68.115C17.9722 67.9263 17.6222 68.115 17.4422 68.115C17.9663 68.0953 18.4636 67.8798 18.8345 67.5117C19.2054 67.1435 19.4224 66.6499 19.4422 66.1296C19.4295 65.607 19.2148 65.1094 18.8424 64.7397C18.4701 64.3701 17.9687 64.1569 17.4422 64.1443H17.3723Z" fill="white" fill-opacity="0.47"></path><path d="M62.5922 62.0295C62.2152 62.8483 62.079 63.7561 62.1993 64.6484C62.3196 65.5407 62.6915 66.381 63.2722 67.0725C63.8644 67.6698 64.6405 68.0537 65.4774 68.1634C66.3143 68.2731 67.1642 68.1023 67.8922 67.678C68.2735 67.4343 68.5942 67.108 68.8301 66.7235C69.0661 66.3391 69.2112 65.9066 69.2545 65.4585C69.2978 65.0103 69.2382 64.5583 69.0802 64.1363C68.9222 63.7144 68.6699 63.3335 68.3422 63.0222C67.0322 61.7714 64.6322 61.7516 63.7222 63.4987C63.587 63.7282 63.4985 63.9818 63.462 64.2452C63.4255 64.5085 63.4416 64.7765 63.5094 65.0336C63.5772 65.2908 63.6953 65.5322 63.8571 65.7441C64.0189 65.956 64.2211 66.1341 64.4522 66.2684C64.6833 66.4027 64.9389 66.4904 65.2042 66.5267C65.4694 66.5629 65.7393 66.547 65.9984 66.4797C66.2575 66.4124 66.5007 66.2951 66.7141 66.1345C66.9275 65.9739 67.107 65.7732 67.2422 65.5437C67.3622 65.3352 67.2422 65.3948 67.0422 65.6926C66.9128 65.8905 66.7127 66.0324 66.4822 66.0897L66.1422 66.1493C65.7922 66.0897 65.7022 66.0798 65.8622 66.1493C66.0222 66.2188 65.4422 65.9309 65.7322 66.1493C65.5022 65.9606 65.4322 65.911 65.5422 66.0202C65.6522 66.1294 65.6022 66.0698 65.4022 65.8316C65.2705 65.6059 65.2177 65.3433 65.2521 65.0847C65.2864 64.8261 65.406 64.5861 65.5922 64.4021C65.8322 64.2433 65.8822 64.2036 65.7522 64.273C65.6222 64.3425 65.6822 64.3227 65.9422 64.1936C65.6022 64.3326 66.2622 64.1936 66.0222 64.1936C65.7822 64.1936 66.5122 64.3326 66.0922 64.1936C65.6722 64.0547 66.3522 64.3425 66.0922 64.1936C65.8322 64.0447 66.4422 64.422 66.0922 64.1936C66.2322 64.3822 66.2622 64.4021 66.1822 64.273C66.1022 64.144 66.1222 64.1638 66.1822 64.3425C66.1822 63.9554 66.1822 64.5113 66.1822 64.2631C66.1822 64.0149 66.1822 63.9554 66.1822 63.8065C66.1822 64.2333 66.2422 63.6576 66.2622 63.6079C66.3166 63.4295 66.3801 63.2539 66.4522 63.0818C66.5277 62.8263 66.5507 62.5583 66.5198 62.2938C66.4889 62.0293 66.4047 61.7736 66.2722 61.5421C66.1397 61.3105 65.9617 61.1078 65.7486 60.946C65.5356 60.7841 65.292 60.6665 65.0322 60.6C64.5192 60.4929 63.9843 60.5802 63.5328 60.8448C63.0813 61.1093 62.7458 61.5319 62.5922 62.0295V62.0295Z" fill="white" fill-opacity="0.47"></path><path d="M44.7722 53.5721C44.106 53.748 43.4969 54.0918 43.004 54.5703C42.511 55.0487 42.151 55.6454 41.9589 56.3026C41.7667 56.9598 41.7489 57.6552 41.9072 58.3212C42.0654 58.9873 42.3944 59.6014 42.8622 60.1041C44.8622 62.149 49.0022 61.0173 49.4722 58.1187C49.58 57.6894 49.548 57.2372 49.381 56.8271C49.2139 56.4169 48.9203 56.0698 48.5422 55.8355C47.6752 55.3271 46.6843 55.0647 45.6774 55.077C44.6705 55.0892 43.6864 55.3756 42.8322 55.905C42.6011 56.0353 42.3981 56.2096 42.2348 56.4179C42.0715 56.6261 41.9512 56.8642 41.8806 57.1186C41.81 57.3731 41.7906 57.6388 41.8235 57.9006C41.8564 58.1625 41.9409 58.4154 42.0722 58.6448C42.2035 58.8742 42.3791 59.0758 42.5889 59.2378C42.7986 59.3999 43.0385 59.5194 43.2948 59.5895C43.5511 59.6595 43.8188 59.6788 44.0826 59.6461C44.3464 59.6135 44.6011 59.5296 44.8322 59.3992C45.0525 59.2121 45.329 59.1028 45.6186 59.0885C45.9081 59.0741 46.1943 59.1555 46.4322 59.3198L45.5922 57.0267C45.5922 57.0267 45.5322 57.3444 45.5222 57.3344C45.5122 57.3245 45.8222 56.858 45.6722 57.0565C45.5222 57.255 45.9222 56.848 45.6722 57.0565C45.6722 57.0565 45.3222 57.2352 45.5522 57.1359C45.7822 57.0366 45.3822 57.1359 45.3222 57.1359C45.4822 57.1359 45.6122 57.0565 45.3222 57.1359C45.4822 57.1359 45.6422 57.2153 45.4022 57.1359C45.4722 57.1359 45.8422 57.4139 45.6922 57.2749C45.5422 57.1359 45.7822 57.4238 45.8122 57.4734C45.8422 57.5231 45.8722 57.3742 45.8122 57.5429C45.7522 57.7117 45.8122 57.4635 45.8122 57.3543C45.8122 57.4933 45.8122 57.6819 45.8122 57.4238C45.8122 57.1657 45.9022 57.3543 45.8122 57.4238C46.0022 57.2153 45.8122 57.4238 45.8122 57.4238C46.2522 57.2451 45.5422 57.5032 45.8122 57.4238C46.0822 57.3444 45.3422 57.5528 45.8122 57.4238C46.3333 57.2816 46.7763 56.9398 47.0435 56.4734C47.3107 56.0071 47.3804 55.4544 47.2372 54.9371C47.094 54.4198 46.7496 53.9801 46.2798 53.7148C45.8101 53.4495 45.2534 53.3803 44.7322 53.5225L44.7722 53.5721Z" fill="white" fill-opacity="0.47"></path><path d="M0.1722 63.0025C0.0858261 64.4549 0.500276 65.8932 1.34731 67.0805C2.19434 68.2678 3.42342 69.1333 4.83217 69.5346C5.13745 69.625 5.46011 69.6417 5.77321 69.5833C6.08631 69.5249 6.3808 69.3931 6.63222 69.1989C6.88363 69.0047 7.08465 68.7536 7.21858 68.4666C7.35251 68.1797 7.41547 67.8651 7.40217 67.5491C7.3665 66.285 6.93108 65.064 6.15755 64.0591C5.38401 63.0542 4.31157 62.3164 3.09218 61.9502C2.74217 61.8486 2.37084 61.8439 2.01833 61.9366C1.66582 62.0294 1.34555 62.216 1.09218 62.4764C0.602589 62.9571 0.258669 63.5646 0.099568 64.2297C-0.0595328 64.8948 -0.0274549 65.5909 0.192158 66.2388C0.343848 66.7499 0.688702 67.183 1.15462 67.4476C1.62054 67.7121 2.17145 67.7877 2.69216 67.6583C3.91041 67.3429 4.95318 66.5612 5.59218 65.4843C6.90218 63.2308 3.38216 61.1858 2.07216 63.4989C1.92216 63.757 1.94217 63.757 1.64217 63.8463L4.14217 65.256C3.97217 64.7696 4.14215 65.256 4.00215 65.4247L2.00215 65.941C2.37391 66.0519 2.7017 66.2749 2.94002 66.5791C3.17834 66.8832 3.31538 67.2535 3.33217 67.6385L5.91218 65.6531C5.3626 65.4858 4.89176 65.1282 4.58528 64.6455C4.27881 64.1627 4.15707 63.5867 4.2422 63.0224C4.2422 62.4866 4.02777 61.9727 3.64613 61.5939C3.2645 61.215 2.74689 61.0022 2.20717 61.0022C1.66746 61.0022 1.14984 61.215 0.768208 61.5939C0.386571 61.9727 0.1722 62.4866 0.1722 63.0224V63.0025Z" fill="white" fill-opacity="0.47"></path><path d="M46.2021 73.9816C46.026 74.5678 45.9927 75.1872 46.1049 75.7887C46.2172 76.3902 46.4718 76.9566 46.8477 77.4413C47.2237 77.926 47.7103 78.3152 48.2674 78.5766C48.8245 78.838 49.4363 78.9643 50.0522 78.9451C50.5006 78.9416 50.9362 78.7962 51.2958 78.5303C51.6555 78.2643 51.9204 77.8915 52.0522 77.466C52.2223 76.8035 52.2437 76.112 52.1149 75.4403C51.986 74.7687 51.7101 74.1334 51.3065 73.5794C50.903 73.0254 50.3817 72.5661 49.7796 72.2342C49.1775 71.9023 48.5092 71.7058 47.8221 71.6586C46.6421 71.5594 45.9121 72.6514 45.8221 73.6441C45.738 74.7738 46.0579 75.8968 46.7255 76.8156C47.3931 77.7343 48.3657 78.3899 49.4722 78.6672C49.7772 78.7441 50.0959 78.751 50.4041 78.6874C50.7122 78.6237 51.0016 78.4911 51.2504 78.2997C51.4991 78.1082 51.7007 77.863 51.8396 77.5827C51.9785 77.3023 52.0513 76.9942 52.0522 76.6817C52.0489 75.4517 51.5714 74.2696 50.7179 73.378C49.8644 72.4864 48.6994 71.9529 47.4622 71.887C46.9317 71.887 46.423 72.0961 46.048 72.4685C45.6729 72.8408 45.4622 73.3458 45.4622 73.8724C45.4865 74.3912 45.705 74.8822 46.075 75.2495C46.4449 75.6167 46.9396 75.8336 47.4622 75.8578C47.2622 75.8578 47.2622 75.8578 47.4622 75.8578C47.6622 75.8578 47.6422 75.9471 47.4622 75.8578C47.5703 75.9125 47.674 75.9756 47.7722 76.0464C47.5422 75.8777 47.7722 76.0464 47.8422 76.1556C47.9122 76.2648 47.7122 75.9273 47.8422 76.1556C47.8422 76.1556 48.0121 76.5229 47.9421 76.3144C47.8721 76.106 47.9421 76.4633 47.9421 76.5031C48.0321 76.7612 47.9421 76.0861 47.9421 76.5924L50.5222 74.607L50.1722 74.5077C50.5322 74.6368 50.1722 74.5077 50.1022 74.4283C49.8622 74.2695 50.2922 74.6169 50.1022 74.4283C49.9122 74.2397 49.8422 74.0511 50.0222 74.3489C49.9548 74.2507 49.8946 74.1479 49.8422 74.0411C49.9322 74.2099 49.9022 74.19 49.8422 74.0411C49.7422 73.6838 49.7922 74.1702 49.8422 73.9617C49.8922 73.7533 49.8422 73.6639 49.8422 73.515L47.8422 75.5004C47.4122 75.5004 47.7622 75.5004 47.8422 75.5004H47.7322L47.8821 75.5798C47.7721 75.5798 47.6521 75.3813 47.8821 75.5798C48.1121 75.7784 48.0721 75.9273 47.9421 75.5798C47.9895 75.679 48.0429 75.7751 48.1022 75.8677C47.9022 75.5203 48.1022 75.8181 48.1022 75.9372C48.1022 76.0563 48.1022 75.5798 48.1022 75.9372C48.1022 76.2946 48.2022 75.6195 48.1022 76.0563L50.1022 74.5673C49.6222 74.6169 49.8822 74.5673 50.2022 74.6963C50.0122 74.5772 50.0122 74.5971 50.2022 74.6963C50.1238 74.6252 50.0503 74.5489 49.9822 74.468C50.1322 74.6566 50.1522 74.6665 49.9822 74.468C50.0822 74.7063 50.0922 74.7261 49.9822 74.468C49.9822 74.8055 49.9021 75.0636 50.0721 74.6169C50.2137 74.0996 50.144 73.5478 49.8781 73.0813C49.6122 72.6148 49.1717 72.2712 48.6522 72.1252C48.1329 71.998 47.5843 72.0733 47.1192 72.3355C46.6541 72.5977 46.308 73.027 46.1522 73.5349L46.2021 73.9816Z" fill="white" fill-opacity="0.47"></path><path d="M8.03226 82.2111C7.35471 81.7625 6.54367 81.556 5.73227 81.6254C5.28257 81.6296 4.84596 81.7763 4.48618 82.0442C4.1264 82.3121 3.86227 82.687 3.73227 83.1144C3.05227 86.0329 6.45227 88.8224 9.16227 87.1448C11.8723 85.4671 10.7823 81.3673 7.93229 80.6327C7.13311 80.4266 6.28452 80.5373 5.56601 80.9411C4.84751 81.345 4.31539 82.0105 4.08225 82.7968C3.91078 83.5779 4.0339 84.3944 4.42832 85.0915C4.82273 85.7886 5.46105 86.3178 6.22226 86.5789C6.99164 86.7884 7.80956 86.736 8.54545 86.4302C9.28134 86.1243 9.89279 85.5825 10.2823 84.8914C10.6566 84.1614 10.8262 83.345 10.7734 82.5276C10.7206 81.7103 10.4474 80.922 9.98227 80.2455C8.62227 78.0219 5.10225 80.047 6.46225 82.2806C6.46225 82.3501 6.85227 82.9854 6.73227 82.9655C6.61227 82.9457 7.04225 82.6975 7.08225 82.6975C7.26125 82.6856 7.44021 82.7217 7.60032 82.802C7.76042 82.8824 7.89581 83.004 7.99228 83.1541C8.14228 83.442 7.99225 83.6207 7.89225 83.9086C7.62225 84.5241 7.45226 84.5141 6.84226 84.534C6.65226 84.4248 6.61228 84.4049 6.74228 84.534C6.87228 84.663 6.84228 84.534 6.67228 84.4645L6.59226 84.256C6.69226 84.4347 6.71226 84.4546 6.65226 84.3156C6.65226 84.1865 6.65226 84.2064 6.65226 84.4049V84.2064V84.3652C6.64292 84.2623 6.66375 84.1589 6.71225 84.0674C6.76734 83.9499 6.84648 83.8451 6.94461 83.7597C7.04275 83.6742 7.15774 83.61 7.28226 83.5711C7.37731 83.5462 7.47719 83.5462 7.57224 83.5711H7.49228L7.64225 83.6406C7.47225 83.5314 7.43228 83.5115 7.55228 83.6406C7.67228 83.7696 7.63228 83.71 7.55228 83.6406C7.62391 83.8132 7.65135 84.0008 7.63224 84.1865L5.63224 85.6756C6.06224 85.6259 5.51224 85.4671 5.88224 85.6756C6.34902 85.9454 6.90469 86.0202 7.42698 85.8833C7.94926 85.7465 8.39542 85.4093 8.66727 84.946C8.93912 84.4826 9.0144 83.931 8.87656 83.4125C8.73872 82.894 8.39907 82.4512 7.93229 82.1813L8.03226 82.2111Z" fill="white" fill-opacity="0.47"></path><path d="M28.6622 81.2782C27.9042 82.0814 27.4933 83.1474 27.5176 84.2478C27.5419 85.3482 27.9995 86.3953 28.7922 87.1648C29.6156 87.8654 30.6825 88.2181 31.7646 88.1476C32.8467 88.0771 33.858 87.589 34.5821 86.7876C34.954 86.3481 35.2255 85.8339 35.3779 85.2803C35.5303 84.7267 35.5601 84.1468 35.465 83.5807C35.37 83.0146 35.1524 82.4757 34.8274 82.0011C34.5023 81.5264 34.0775 81.1274 33.5821 80.8314C33.1135 80.5475 32.5892 80.3661 32.0442 80.2994C31.4993 80.2326 30.9463 80.282 30.4222 80.4443C29.8145 80.6507 29.2625 80.9924 28.8084 81.4432C28.3543 81.894 28.0101 82.442 27.8022 83.0451C27.7266 83.3007 27.7036 83.5686 27.7345 83.8332C27.7655 84.0977 27.8497 84.3533 27.9822 84.5848C28.1146 84.8164 28.2927 85.0191 28.5057 85.1809C28.7187 85.3428 28.9624 85.4604 29.2221 85.5269C29.7429 85.6595 30.2952 85.5868 30.7632 85.324C31.2311 85.0612 31.5784 84.6287 31.7322 84.1172C31.6422 84.3356 31.5222 84.3853 31.7322 84.2165C31.5122 84.3853 31.4322 84.286 31.7322 84.286C31.5322 84.286 31.5122 84.286 31.6622 84.286C31.8122 84.286 31.7921 84.286 31.5721 84.286C31.3521 84.286 31.3622 84.1967 31.4922 84.286C31.6222 84.3753 31.5922 84.3456 31.4322 84.286C31.5722 84.4349 31.5921 84.4548 31.5021 84.3456C31.4121 84.2364 31.4321 84.2662 31.5021 84.4448C31.4321 84.2562 31.4221 84.2364 31.5021 84.3753C31.5821 84.5143 31.5021 84.4845 31.5021 84.2662C31.5021 84.4746 31.5021 84.5044 31.5021 84.3555C31.5013 84.2617 31.5331 84.1706 31.5921 84.0974C31.4821 84.2661 31.4821 84.2959 31.5921 84.1768C31.7021 84.0577 31.6721 84.0775 31.5321 84.1768L31.6722 84.0577C31.4722 84.1669 31.4822 84.1768 31.6722 84.0577L31.5021 84.1073C31.2721 84.1073 31.2821 84.1073 31.5021 84.1073H31.3321C31.5921 84.1073 31.6021 84.1073 31.3321 84.1073L31.5021 84.1768C31.3121 84.0577 31.3121 84.0577 31.5021 84.1768L31.6022 84.3158C31.4955 84.1106 31.4955 84.1106 31.6022 84.3158V84.147C31.6022 84.3555 31.6022 84.3952 31.6022 84.2364V83.9683C31.6022 84.1867 31.6022 84.2165 31.6022 84.0676C31.6022 83.9187 31.6022 83.9584 31.6022 84.147C31.7222 83.9485 31.7222 83.9386 31.6022 84.147C31.9737 83.7625 32.1812 83.2504 32.1812 82.7176C32.1812 82.1847 31.9737 81.6726 31.6022 81.2881C31.2173 80.9146 30.7004 80.7055 30.1622 80.7055C29.6239 80.7055 29.107 80.9146 28.7221 81.2881L28.6622 81.2782Z" fill="white" fill-opacity="0.47"></path></svg>