<svg xmlns="http://www.w3.org/2000/svg" width="130" height="45" viewBox="0 0 130 45" fill="none"><g clip-path="url(#clip0_170_82)"><path d="M30.4 21.5299H29.58C29.74 21.8599 29.89 22.1899 30.04 22.5299C31.6496 26.1353 32.4745 30.0416 32.46 33.9899C32.471 36.007 32.2597 38.0191 31.83 39.9899L39.83 35.5799C40.5675 35.1391 41.1868 34.5255 41.6345 33.7921C42.0823 33.0587 42.3449 32.2274 42.4 31.3699V26.8399C40.8855 25.1608 39.034 23.8201 36.9663 22.9051C34.8985 21.9901 32.6611 21.5215 30.4 21.5299Z" fill="url(#paint0_linear_170_82)"></path><path d="M10.13 30.9901C10.143 30.4263 10.2672 29.8706 10.4956 29.3549C10.7241 28.8392 11.0521 28.3738 11.461 27.9854C11.8699 27.5969 12.3515 27.2931 12.8782 27.0914C13.4049 26.8898 13.9662 26.7941 14.53 26.8101C14.7913 26.8052 15.0525 26.8253 15.31 26.8701C15.9723 25.9434 16.7225 25.0828 17.55 24.3001C19.5731 22.3718 22.0127 20.9347 24.68 20.1001C22.446 16.7827 19.517 13.9911 16.0962 11.919C12.6754 9.84681 8.84477 8.54372 4.87 8.1001L2.54 9.4401C1.81314 9.88286 1.20311 10.4935 0.761135 11.2209C0.319162 11.9482 0.0581452 12.771 0 13.6201V31.3501C0.0581452 32.1992 0.319162 33.022 0.761135 33.7493C1.20311 34.4767 1.81314 35.0873 2.54 35.5301L12.92 41.2301C12.4699 39.7108 12.2409 38.1346 12.24 36.5501C12.2397 35.9149 12.2798 35.2803 12.36 34.6501C11.6919 34.299 11.1315 33.7731 10.7388 33.1285C10.3461 32.4839 10.1357 31.7449 10.13 30.9901Z" fill="url(#paint1_linear_170_82)"></path><path d="M39.88 9.44022L23.75 0.580224C22.959 0.199912 22.0926 0.00244141 21.215 0.00244141C20.3373 0.00244141 19.4709 0.199912 18.68 0.580224L9.57996 5.58022C10.9409 5.93154 12.2772 6.3725 13.58 6.90022C17.2225 8.35526 20.5551 10.4899 23.4 13.1902C25.3326 15.02 27.0139 17.0982 28.4 19.3702C29.0666 19.2969 29.7333 19.2569 30.4 19.2502C34.7863 19.2383 39.036 20.7753 42.4 23.5902V13.5902C42.3401 12.748 42.0803 11.9321 41.642 11.2103C41.2038 10.4886 40.5997 9.88177 39.88 9.44022Z" fill="url(#paint2_linear_170_82)"></path><path d="M17.5001 27.9099C17.9444 28.2921 18.3026 28.7643 18.5508 29.2953C18.7991 29.8262 18.9317 30.4038 18.9401 30.9899C18.9218 32.1103 18.4659 33.1791 17.6698 33.9678C16.8737 34.7564 15.8006 35.2022 14.6801 35.2099C14.6801 35.6499 14.6201 36.0999 14.6201 36.5499C14.6086 38.8048 15.1258 41.031 16.1301 43.0499L18.6501 44.4299C19.4393 44.8101 20.304 45.0075 21.1801 45.0075C22.0561 45.0075 22.9208 44.8101 23.7101 44.4299L27.4101 42.4299C28.5998 39.132 29.0769 35.6194 28.8097 32.1237C28.5425 28.628 27.5372 25.2286 25.8601 22.1499C22.5147 23.0959 19.5756 25.1209 17.5001 27.9099Z" fill="url(#paint3_linear_170_82)"></path><path d="M65.7101 21.9902C65.8524 22.1132 65.9644 22.2675 66.0373 22.4409C66.1102 22.6144 66.1419 22.8024 66.1301 22.9902V27.3802C66.1505 27.8484 66.1 28.3171 65.9801 28.7702C65.8881 29.0786 65.703 29.3511 65.4501 29.5502C65.1071 29.791 64.7195 29.961 64.3101 30.0502C63.6158 30.249 62.9069 30.3928 62.1901 30.4802C61.4442 30.5802 60.6926 30.6304 59.9401 30.6302C58.355 30.6715 56.7836 30.3284 55.3601 29.6302C54.1028 29.0175 53.0579 28.0422 52.3601 26.8302C51.6576 25.4869 51.3132 23.9853 51.3601 22.4702C51.3231 20.972 51.6672 19.489 52.3601 18.1602C53.0563 16.9444 54.1014 15.9655 55.3601 15.3502C56.7478 14.6618 58.2813 14.3187 59.8301 14.3502C61.7283 14.3045 63.5894 14.8804 65.1301 15.9902C65.3335 16.1322 65.504 16.3164 65.6301 16.5302C65.7318 16.7383 65.78 16.9687 65.7701 17.2002C65.7789 17.565 65.6545 17.9205 65.4201 18.2002C65.327 18.3276 65.205 18.4311 65.0643 18.5024C64.9235 18.5736 64.7678 18.6106 64.6101 18.6102C64.4224 18.6203 64.2347 18.5896 64.0601 18.5202C63.8405 18.4587 63.6291 18.3714 63.4301 18.2602C62.8562 17.9124 62.2416 17.6369 61.6001 17.4402C61.0102 17.2622 60.3961 17.1778 59.7801 17.1902C56.5734 17.1902 54.9667 18.9635 54.9601 22.5102C54.843 23.9858 55.2897 25.4509 56.2101 26.6102C56.7138 27.0991 57.3159 27.4751 57.9763 27.713C58.6367 27.951 59.3403 28.0455 60.0401 27.9902C60.9578 27.9973 61.8724 27.883 62.7601 27.6502V24.1502H60.6201C60.24 24.1722 59.8644 24.0588 59.5601 23.8302C59.4421 23.7139 59.3485 23.5753 59.2846 23.4225C59.2207 23.2698 59.1878 23.1058 59.1878 22.9402C59.1878 22.7746 59.2207 22.6106 59.2846 22.4578C59.3485 22.305 59.4421 22.1665 59.5601 22.0502C59.8644 21.8215 60.24 21.7082 60.6201 21.7302H64.6201C65.0032 21.6749 65.3931 21.7679 65.7101 21.9902Z" fill="#231F20"></path><path d="M70.96 28.8899C70.3219 28.231 69.8293 27.4455 69.514 26.5842C69.1988 25.7229 69.0679 24.8049 69.13 23.8899V16.2099C69.1237 15.9838 69.1639 15.7588 69.2482 15.5489C69.3325 15.3391 69.4591 15.1488 69.62 14.9899C69.7974 14.8272 70.0057 14.7019 70.2324 14.6211C70.4591 14.5404 70.6997 14.506 70.94 14.5199C71.1789 14.5038 71.4186 14.5373 71.644 14.6182C71.8694 14.699 72.0757 14.8256 72.25 14.9899C72.4173 15.1529 72.5483 15.3494 72.6345 15.5665C72.7206 15.7836 72.76 16.0165 72.75 16.2499V24.0999C72.6709 25.1396 72.993 26.1701 73.65 26.9799C74.3806 27.6239 75.3211 27.9792 76.295 27.9792C77.2689 27.9792 78.2094 27.6239 78.94 26.9799C79.5999 26.1747 79.9288 25.1486 79.86 24.1099V16.1799C79.8486 15.9481 79.8854 15.7164 79.968 15.4996C80.0507 15.2827 80.1773 15.0853 80.34 14.9199C80.5153 14.7571 80.7217 14.6315 80.9469 14.5507C81.172 14.4699 81.4112 14.4356 81.65 14.4499C81.8919 14.4346 82.1344 14.4684 82.363 14.5491C82.5915 14.6299 82.8014 14.756 82.98 14.9199C83.1527 15.0802 83.2893 15.2755 83.3807 15.4928C83.4721 15.71 83.5162 15.9442 83.51 16.1799V23.8699C83.5707 24.7865 83.4373 25.7057 83.1185 26.5672C82.7997 27.4288 82.3027 28.2135 81.66 28.8699C80.1736 30.1207 78.2575 30.7415 76.32 30.5999C74.378 30.7567 72.4524 30.1423 70.96 28.8899Z" fill="#231F20"></path><path d="M89.2199 30.24C88.2747 30.0219 87.3813 29.621 86.59 29.06C86.3816 28.9247 86.2071 28.7434 86.08 28.53C85.9748 28.3084 85.9235 28.0651 85.93 27.82C85.9181 27.4529 86.0468 27.0952 86.29 26.82C86.3838 26.6847 86.5095 26.5747 86.656 26.4997C86.8026 26.4246 86.9654 26.387 87.13 26.39C87.3062 26.3913 87.4814 26.4183 87.65 26.47C87.8606 26.5386 88.0621 26.6326 88.25 26.75C88.8739 27.1321 89.5467 27.4281 90.25 27.63C91.0002 27.8281 91.7741 27.9223 92.55 27.91C93.3726 27.959 94.1936 27.79 94.93 27.42C95.1869 27.2815 95.4004 27.0746 95.5469 26.8222C95.6934 26.5698 95.7672 26.2817 95.76 25.99C95.7516 25.7481 95.6748 25.5135 95.5385 25.3135C95.4022 25.1135 95.212 24.9563 94.99 24.86C94.1181 24.4654 93.1961 24.1929 92.25 24.05C91.0475 23.8579 89.8724 23.5221 88.75 23.05C87.9821 22.7397 87.3168 22.22 86.83 21.55C86.4177 20.8954 86.2089 20.1333 86.23 19.36C86.2464 18.4472 86.5627 17.5652 87.13 16.85C87.7436 16.0251 88.5696 15.3822 89.52 14.99C90.6156 14.5483 91.7887 14.3306 92.9699 14.35C94.9563 14.2708 96.9135 14.847 98.54 15.99C98.7492 16.1325 98.9236 16.3205 99.05 16.54C99.1771 16.8096 99.2248 17.1098 99.1877 17.4055C99.1505 17.7012 99.0299 17.9803 98.84 18.21C98.7461 18.3452 98.6204 18.4553 98.4739 18.5303C98.3273 18.6053 98.1645 18.643 98 18.64C97.8369 18.6477 97.674 18.6239 97.52 18.57C97.2955 18.5001 97.0805 18.4027 96.88 18.28C96.3261 17.9257 95.7402 17.6244 95.13 17.38C94.4643 17.1691 93.768 17.0711 93.07 17.09C92.276 17.0434 91.4852 17.2238 90.79 17.61C90.5362 17.7564 90.3264 17.9681 90.1821 18.2231C90.0379 18.4781 89.9647 18.7671 89.9699 19.06C89.9559 19.3871 90.0708 19.7067 90.29 19.95C90.5885 20.2386 90.952 20.4513 91.35 20.57C92.0424 20.8068 92.7509 20.994 93.4699 21.13C95.1121 21.3902 96.6841 21.9822 98.09 22.87C98.5441 23.2006 98.9096 23.6384 99.1538 24.1443C99.3981 24.6502 99.5135 25.2087 99.49 25.77C99.5002 26.6818 99.2083 27.5714 98.66 28.3C98.031 29.0737 97.2004 29.6586 96.26 29.99C95.1321 30.4126 93.9341 30.6163 92.73 30.59C91.5498 30.6235 90.3702 30.5059 89.2199 30.24Z" fill="#231F20"></path><path d="M106.07 30.0501C105.9 29.8894 105.766 29.6933 105.68 29.4756C105.594 29.2579 105.556 29.0239 105.57 28.7901V17.4201H101.73C100.57 17.4201 99.99 16.9401 99.99 15.9801C99.99 14.9801 100.57 14.5601 101.73 14.5601H113.13C114.29 14.5601 114.87 15.0301 114.87 15.9801C114.87 16.9301 114.29 17.4201 113.13 17.4201H109.29V28.7901C109.302 29.0228 109.264 29.2554 109.18 29.4725C109.096 29.6897 108.966 29.8865 108.8 30.0501C108.415 30.3662 107.933 30.539 107.435 30.539C106.937 30.539 106.455 30.3662 106.07 30.0501Z" fill="#231F20"></path><path d="M130 28.9902C130.002 29.1976 129.955 29.4026 129.863 29.5885C129.771 29.7744 129.636 29.936 129.47 30.0602C129.132 30.3462 128.703 30.5022 128.26 30.5002C127.957 30.5012 127.659 30.4182 127.4 30.2602C127.124 30.0983 126.907 29.8532 126.78 29.5602L125.53 26.9102H117.53L116.28 29.5602C116.161 29.8522 115.95 30.0978 115.68 30.2602C115.421 30.4182 115.123 30.5012 114.82 30.5002C114.371 30.5044 113.935 30.3484 113.59 30.0602C113.418 29.9392 113.278 29.7791 113.18 29.593C113.083 29.4069 113.032 29.2002 113.03 28.9902C113.034 28.7383 113.099 28.4912 113.22 28.2702L119.58 15.5302C119.746 15.1809 120.019 14.8937 120.36 14.7102C120.699 14.5201 121.081 14.4202 121.47 14.4202C121.87 14.4141 122.265 14.5179 122.61 14.7202C122.953 14.9054 123.235 15.187 123.42 15.5302L129.81 28.2402C129.931 28.4719 129.996 28.7287 130 28.9902ZM118.78 24.2502H124.28L121.58 18.4002L118.78 24.2502Z" fill="#231F20"></path></g><defs><linearGradient id="paint0_linear_170_82" x1="29.95" y1="24.0999" x2="42.39" y2="40.2199" gradientUnits="userSpaceOnUse"><stop stop-color="#F05B26"></stop><stop offset="1" stop-color="#FCE863"></stop></linearGradient><linearGradient id="paint1_linear_170_82" x1="15.83" y1="12.6201" x2="-2.52" y2="40.3901" gradientUnits="userSpaceOnUse"><stop stop-color="#008DBC"></stop><stop offset="1" stop-color="#90B7E0"></stop></linearGradient><linearGradient id="paint2_linear_170_82" x1="9.57996" y1="11.8002" x2="42.42" y2="11.8002" gradientUnits="userSpaceOnUse"><stop stop-color="#C1272D"></stop><stop offset="1" stop-color="#ED3452"></stop></linearGradient><linearGradient id="paint3_linear_170_82" x1="26.2101" y1="25.8299" x2="14.8401" y2="54.2499" gradientUnits="userSpaceOnUse"><stop stop-color="#02949D"></stop><stop offset="1" stop-color="#74C7B1"></stop></linearGradient><clipPath id="clip0_170_82"><rect width="130" height="45" fill="white"></rect></clipPath></defs></svg>