<svg xmlns="http://www.w3.org/2000/svg" width="131" height="31" viewBox="0 0 131 31" fill="none"><g clip-path="url(#clip0_170_118)"><path d="M35.3232 2.90531C33.8728 -1.41698 26.7614 -0.79698 18.5926 3.98588L19.4441 4.53502C26.1345 0.708734 31.6739 -0.159266 32.6751 2.81673C33.405 4.99559 31.5242 8.75102 27.9965 12.7279C25.7976 10.4516 23.3835 8.37902 20.7822 6.52788C11.1443 -0.442694 1.93689 -2.08127 0.261966 2.90531C-0.748605 5.92559 1.19768 10.673 5.11832 15.5002C1.23511 20.3184 -0.748605 25.0747 0.261966 28.095C1.75911 32.5236 9.29161 31.753 17.7973 26.545C26.3029 31.753 33.826 32.559 35.3232 28.095C36.3431 25.0747 34.3875 20.3184 30.4668 15.5002C34.35 10.673 36.3431 5.92559 35.3232 2.90531ZM2.91939 2.80788C3.94868 -0.283266 9.89982 0.770734 16.9551 4.99559C16.2346 5.45616 15.5141 5.94331 14.7843 6.47473C12.183 8.32588 9.76882 10.3984 7.57925 12.6747C4.07032 8.74216 2.18018 4.98673 2.91939 2.80788ZM1.87139 24.9684C1.19768 22.9756 2.71354 19.6542 5.61425 16.1113C8.05647 19.0076 10.8449 21.6204 13.914 23.9144C7.73832 27.165 2.80711 27.7673 1.87139 24.9684ZM33.7886 24.9684C32.5815 28.5733 24.7028 26.5716 16.1785 20.4159C13.2497 18.3167 10.5455 15.943 8.12197 13.3302C10.2648 11.1602 12.5947 9.1673 15.1024 7.37816C16.0381 6.71388 16.9738 6.10273 17.8347 5.53588C18.7704 6.10273 19.6406 6.71388 20.5576 7.37816C23.0653 9.1673 25.3952 11.1602 27.538 13.3302C25.1145 15.943 22.4103 18.3167 19.4815 20.4159L18.7704 20.9207C20.0149 21.7533 21.3062 22.5062 22.6349 23.197C25.3485 21.0802 27.8281 18.7064 30.027 16.1113C32.909 19.6542 34.4249 22.9756 33.7699 24.9684H33.7886Z" fill="url(#paint0_linear_170_118)"></path><path d="M42.0229 4.30469H45.85V24.1978H56.7698V27.4573H42.0229V4.30469Z" fill="#231F20"></path><path d="M63.6286 26.4119C61.7853 25.4287 60.2788 23.9673 59.2869 22.1959C58.2015 20.2473 57.6494 18.0773 57.7056 15.8719C57.6588 13.6665 58.2015 11.4876 59.2869 9.53903C60.2788 7.7676 61.7853 6.30617 63.6286 5.31417C67.568 3.33017 72.3027 3.33017 76.2421 5.31417C78.0854 6.29731 79.5826 7.75874 80.5838 9.52131C81.6692 11.4699 82.2119 13.6487 82.1651 15.8542C82.2213 18.0596 81.6692 20.2296 80.5838 22.1782C79.5919 23.9496 78.0854 25.411 76.2421 26.3942C72.3027 28.387 67.5773 28.387 63.6286 26.4119ZM74.3332 23.2942C75.5496 22.559 76.504 21.4962 77.0842 20.2473C77.7205 18.8656 78.048 17.3776 78.0199 15.8719C78.048 14.3662 77.7205 12.8782 77.0842 11.4965C76.5134 10.2299 75.5496 9.15817 74.3332 8.41417C71.5728 6.93503 68.2043 6.93503 65.4439 8.41417C64.2088 9.14931 63.2356 10.2033 62.6368 11.461C61.9911 12.8339 61.673 14.3307 61.7011 15.8365C61.673 17.3422 61.9911 18.839 62.6368 20.2119C63.2356 21.4696 64.2088 22.5236 65.4439 23.2587C68.2043 24.7202 71.5728 24.7202 74.3332 23.2587V23.2942Z" fill="url(#paint1_linear_170_118)"></path><path d="M86.2634 4.30445H94.741C96.9961 4.18045 99.2231 4.8093 101.048 6.07587C102.554 7.25387 103.312 9.0253 103.312 11.3902C103.471 14.1802 101.749 16.7576 99.0266 17.8293L104.641 27.4836H100.121L95.1901 18.6264H90.2309V27.457H86.2634V4.30445ZM94.2076 15.4999C95.5738 15.5973 96.9306 15.2164 98.016 14.4282C98.8675 13.6753 99.326 12.6124 99.2698 11.5142C99.3634 10.3716 98.9143 9.24673 98.0347 8.45844C96.9586 7.69673 95.6299 7.32473 94.2918 7.42216H90.2309V15.4999H94.2076Z" fill="#231F20"></path><path d="M112.464 26.4119C110.62 25.4287 109.114 23.9673 108.122 22.1959C107.036 20.2473 106.484 18.0773 106.541 15.8719C106.484 13.6665 107.036 11.4876 108.122 9.53903C109.114 7.7676 110.62 6.29731 112.464 5.31417C116.403 3.33017 121.138 3.33017 125.077 5.31417C126.911 6.30617 128.417 7.75874 129.419 9.52131C130.504 11.4787 131.047 13.6665 131 15.8719C131.047 18.0685 130.504 20.2473 129.419 22.1959C128.427 23.9673 126.92 25.4287 125.077 26.4119C121.138 28.3959 116.403 28.3959 112.464 26.4119ZM123.215 23.2942C124.431 22.559 125.386 21.4962 125.966 20.2473C126.602 18.8656 126.92 17.3776 126.902 15.8719C126.92 14.3662 126.602 12.8782 125.966 11.4965C125.395 10.2299 124.431 9.15817 123.215 8.41417C120.455 6.93503 117.086 6.93503 114.326 8.41417C113.091 9.14931 112.117 10.2033 111.519 11.461C110.873 12.8339 110.555 14.3307 110.583 15.8365C110.555 17.3422 110.873 18.839 111.519 20.2119C112.117 21.4696 113.091 22.5236 114.326 23.2587C117.086 24.7202 120.455 24.7202 123.215 23.2587V23.2942Z" fill="url(#paint2_linear_170_118)"></path></g><defs><linearGradient id="paint0_linear_170_118" x1="4.92145" y1="36.4564" x2="25.3105" y2="-0.592864" gradientUnits="userSpaceOnUse"><stop stop-color="#E42689"></stop><stop offset="1" stop-color="#FCB62A"></stop></linearGradient><linearGradient id="paint1_linear_170_118" x1="51.0246" y1="15.8586" x2="75.491" y2="15.8586" gradientUnits="userSpaceOnUse"><stop stop-color="#E42689"></stop><stop offset="1" stop-color="#FCB62A"></stop></linearGradient><linearGradient id="paint2_linear_170_118" x1="99.0829" y1="15.863" x2="123.549" y2="15.863" gradientUnits="userSpaceOnUse"><stop stop-color="#E42689"></stop><stop offset="1" stop-color="#FCB62A"></stop></linearGradient><clipPath id="clip0_170_118"><rect width="131" height="31" fill="white"></rect></clipPath></defs></svg>